<?xml version="1.0" encoding="utf-8"?>
<!-- Generator: Adobe Illustrator 16.0.3, SVG Export Plug-In . SVG Version: 6.00 Build 0)  -->
<!DOCTYPE svg PUBLIC "-//W3C//DTD SVG 1.1//EN" "http://www.w3.org/Graphics/SVG/1.1/DTD/svg11.dtd">
<svg version="1.1" id="圖層_1" xmlns="http://www.w3.org/2000/svg" xmlns:xlink="http://www.w3.org/1999/xlink" x="0px" y="0px"
	 width="1031.811px" height="728.5px" viewBox="0 0 1031.811 728.5" enable-background="new 0 0 1031.811 728.5"
	 xml:space="preserve">
<circle fill="#FFF100" stroke="#FFFFFF" stroke-width="20" stroke-miterlimit="10" cx="700.006" cy="327.515" r="115.237"/>
<g>
	<rect x="668.001" y="259.221" fill="#FFFFFF" width="34.146" height="34.146"/>
	<rect x="685.074" y="276.294" fill="#FFFFFF" width="34.147" height="34.146"/>
	<rect x="702.147" y="293.367" fill="#FFFFFF" width="34.146" height="34.146"/>
	<rect x="719.222" y="310.44" fill="#FFFFFF" width="34.146" height="34.146"/>
	<rect x="702.147" y="327.514" fill="#FFFFFF" width="34.146" height="34.147"/>
	<rect x="685.074" y="344.587" fill="#FFFFFF" width="34.147" height="34.147"/>
	<rect x="665.86" y="361.661" fill="#FFFFFF" width="34.146" height="34.147"/>
</g>
<circle fill="#FFF100" stroke="#FFFFFF" stroke-width="20" stroke-miterlimit="10" cx="292.396" cy="327.515" r="115.237"/>
<g>
	<rect x="290.254" y="259.222" fill="#FFFFFF" width="34.146" height="34.146"/>
	<rect x="273.18" y="276.294" fill="#FFFFFF" width="34.147" height="34.146"/>
	<rect x="256.107" y="293.368" fill="#FFFFFF" width="34.147" height="34.146"/>
	<rect x="239.034" y="310.441" fill="#FFFFFF" width="34.146" height="34.146"/>
	<rect x="256.107" y="327.514" fill="#FFFFFF" width="34.147" height="34.147"/>
	<rect x="273.18" y="344.587" fill="#FFFFFF" width="34.147" height="34.147"/>
	<rect x="292.395" y="361.662" fill="#FFFFFF" width="34.146" height="34.147"/>
</g>
<circle fill="#FFF100" stroke="#FFFFFF" stroke-width="20" stroke-miterlimit="10" cx="497.465" cy="528.091" r="115.237"/>
<g>
	<rect x="429.171" y="496.086" fill="#FFFFFF" width="34.146" height="34.146"/>
	<rect x="446.244" y="513.16" fill="#FFFFFF" width="34.146" height="34.146"/>
	<rect x="463.316" y="530.232" fill="#FFFFFF" width="34.146" height="34.148"/>
	<rect x="480.391" y="547.307" fill="#FFFFFF" width="34.146" height="34.146"/>
	<rect x="497.463" y="530.232" fill="#FFFFFF" width="34.149" height="34.148"/>
	<rect x="514.537" y="513.16" fill="#FFFFFF" width="34.147" height="34.146"/>
	<rect x="531.612" y="493.945" fill="#FFFFFF" width="34.146" height="34.146"/>
</g>
<circle fill="#FFF100" stroke="#FFFFFF" stroke-width="20" stroke-miterlimit="10" cx="496.539" cy="125.096" r="115.237"/>
<g>
	<rect x="428.245" y="122.954" fill="#FFFFFF" width="34.146" height="34.146"/>
	<rect x="445.318" y="105.88" fill="#FFFFFF" width="34.146" height="34.146"/>
	<rect x="462.39" y="88.806" fill="#FFFFFF" width="34.146" height="34.148"/>
	<rect x="479.464" y="71.733" fill="#FFFFFF" width="34.146" height="34.146"/>
	<rect x="496.537" y="88.806" fill="#FFFFFF" width="34.149" height="34.148"/>
	<rect x="513.611" y="105.88" fill="#FFFFFF" width="34.147" height="34.146"/>
	<rect x="530.686" y="125.094" fill="#FFFFFF" width="34.146" height="34.146"/>
</g>
</svg>
