<?xml version="1.0" encoding="utf-8"?>
<!-- Generator: Adobe Illustrator 16.0.3, SVG Export Plug-In . SVG Version: 6.00 Build 0)  -->
<!DOCTYPE svg PUBLIC "-//W3C//DTD SVG 1.1//EN" "http://www.w3.org/Graphics/SVG/1.1/DTD/svg11.dtd">
<svg version="1.1" id="圖層_1" xmlns="http://www.w3.org/2000/svg" xmlns:xlink="http://www.w3.org/1999/xlink" x="0px" y="0px"
	 width="279.346px" height="360.372px" viewBox="315.29 74.575 279.346 360.372"
	 enable-background="new 315.29 74.575 279.346 360.372" xml:space="preserve">
<g>
	<rect x="483.88" y="406.138" fill="#1700FF" width="3.295" height="4.054"/>
	
		<rect x="432.338" y="427.12" transform="matrix(-1 -0.0024 0.0024 -1 902.8593 863.1097)" fill="#B5B5B6" width="39.225" height="7.78"/>
	
		<rect x="429.537" y="421.616" transform="matrix(-1 -0.0024 0.0024 -1 902.895 853.2826)" fill="#B5B5B6" width="44.843" height="8.969"/>
	
		<rect x="427.009" y="417.785" transform="matrix(-1 -0.0024 0.0024 -1 903.1713 845.6252)" fill="#B5B5B6" width="50.166" height="8.975"/>
	
		<rect x="411.906" y="414.521" transform="matrix(-1 -0.0024 0.0024 -1 903.4435 838.8752)" fill="#0000FF" width="80.638" height="8.751"/>
	
		<rect x="411.908" y="413.394" transform="matrix(-1 -0.0024 0.0024 -1 906.1211 834.7606)" fill="#1700FF" width="83.309" height="6.884"/>
	
		<rect x="486.665" y="400.514" transform="matrix(-1 -0.0022 0.0022 -1 984.1316 819.0999)" fill="#0000FF" width="11.723" height="16.965"/>
	
		<rect x="411.91" y="408.924" transform="matrix(-1 -0.0024 0.0024 -1 906.9492 824.5556)" fill="#0000FF" width="84.12" height="5.617"/>
	
		<rect x="440.199" y="406.099" transform="matrix(-1 -0.0024 0.0024 -1 911.4929 816.3715)" fill="#0000FF" width="32.076" height="3.077"/>
	
		<rect x="443.607" y="400.325" transform="matrix(-1 -0.0023 0.0023 -1 912.1229 807.5221)" fill="#1700FF" width="25.824" height="5.837"/>
	
		<rect x="411.888" y="406.063" transform="matrix(-1 -0.0022 0.0022 -1 840.2561 816.1484)" fill="#0000FF" width="17.397" height="3.08"/>
	
		<rect x="417.832" y="400.209" transform="matrix(-1 -0.0024 0.0024 -1 843.2443 807.5104)" fill="#0000FF" width="8.549" height="6.08"/>
	
		<rect x="414.633" y="403.235" transform="matrix(-1 -0.0027 0.0027 -1 832.557 811.3118)" fill="#0000FF" width="4.377" height="3.727"/>
	
		<rect x="475.163" y="398.181" transform="matrix(-1 -0.0023 0.0023 -1 955.4052 803.4468)" fill="#FFFFFF" width="5.995" height="5.996"/>
	
		<rect x="432.273" y="398.102" transform="matrix(-1 -0.0024 0.0024 -1 869.5572 803.264)" fill="#FFFFFF" width="5.992" height="5.997"/>
	
		<rect x="411.898" y="425.259" transform="matrix(-1 -0.0027 0.0027 -1 828.4872 853.631)" fill="#B5B5B6" width="5.834" height="2.004"/>
	
		<rect x="413.097" y="423.297" transform="matrix(-1 -0.0022 0.0022 -1 831.1079 849.4536)" fill="#B5B5B6" width="5.837" height="1.955"/>
	
		<rect x="410.73" y="427.214" transform="matrix(-1 -0.0025 0.0025 -1 826.2158 857.8031)" fill="#B5B5B6" width="5.833" height="2.337"/>
	
		<rect x="437.405" y="429.28" transform="matrix(-1 -0.0024 0.0024 -1 905.1469 862.6307)" fill="#040000" width="31.371" height="2.986"/>
	
		<rect x="435.21" y="426.274" transform="matrix(-1 -0.0024 0.0024 -1 905.1615 856.6185)" fill="#040000" width="35.771" height="2.982"/>
	
		<rect x="435.222" y="423.288" transform="matrix(-1 -0.0024 0.0024 -1 907.3948 850.6581)" fill="#040000" width="37.979" height="2.985"/>
	
		<rect x="411.896" y="417.35" transform="matrix(-1 -0.0024 0.0024 -1 909.282 838.7623)" fill="#0000FF" width="86.498" height="2.969"/>
	
		<rect x="486.708" y="400.597" transform="matrix(-1 -0.0022 0.0022 -1 984.2332 806.9731)" fill="#B5B5B6" width="11.724" height="4.672"/>
	
		<rect x="443.619" y="400.309" transform="matrix(-1 -0.0023 0.0023 -1 912.1326 806.344)" fill="#0000FF" width="25.825" height="4.674"/>
	
		<rect x="414.604" y="400.238" transform="matrix(-1 -0.0022 0.0022 -1 840.0881 806.056)" fill="#B5B5B6" width="11.751" height="4.672"/>
	<g>
		
			<rect x="472.283" y="393.251" transform="matrix(-1 -0.0024 0.0024 -1 955.2351 803.3539)" fill="#040000" width="11.615" height="15.728"/>
		
			<rect x="472.9" y="392.521" transform="matrix(-0.0023 1 -1 -0.0023 880.3907 -76.0608)" fill="#040000" width="10.475" height="17.238"/>
	</g>
	<g>
		
			<rect x="429.163" y="393.147" transform="matrix(-1 -0.0023 0.0023 -1 869.0311 803.0067)" fill="#040000" width="11.617" height="15.727"/>
		
			<rect x="429.791" y="392.422" transform="matrix(-0.0026 1 -1 -0.0026 837.2025 -32.941)" fill="#040000" width="10.476" height="17.235"/>
	</g>
	
		<rect x="474.102" y="397.112" transform="matrix(-1 -0.0027 0.0027 -1 955.1132 803.5028)" fill="#FFFFFF" width="7.99" height="7.994"/>
	
		<rect x="430.967" y="397.03" transform="matrix(-1 -0.0022 0.0022 -1 869.0449 803.0121)" fill="#FFFFFF" width="7.994" height="7.996"/>
</g>
<g>
	
		<rect x="421.293" y="99.982" transform="matrix(-1 -0.0062 0.0062 -1 845.333 206.747)" fill="#FFF100" width="3.388" height="4.163"/>
	
		<rect x="437.428" y="74.7" transform="matrix(-1 -0.0062 0.0062 -1 914.6741 160.231)" fill="#FFF100" width="40.315" height="7.995"/>
	
		<rect x="434.507" y="79.148" transform="matrix(-1 -0.0062 0.0062 -1 914.5767 170.3444)" fill="#FFF100" width="46.09" height="9.215"/>
	
		<rect x="431.643" y="83.059" transform="matrix(-1 -0.0062 0.0062 -1 914.2911 178.1698)" fill="#FFF100" width="51.558" height="9.216"/>
	
		<rect x="415.828" y="86.655" transform="matrix(-1 -0.0062 0.0062 -1 913.9555 185.1382)" fill="#FFF100" width="82.874" height="8.995"/>
	
		<rect x="413.069" y="89.726" transform="matrix(-1 -0.0062 0.0062 -1 911.1748 189.3539)" fill="#FFF100" width="85.624" height="7.077"/>
	
		<rect x="409.752" y="92.474" transform="matrix(-1 -0.006 0.006 -1 830.9393 204.8781)" fill="#FFF100" width="12.049" height="17.437"/>
	
		<rect x="412.206" y="95.626" transform="matrix(-1 -0.0062 0.0062 -1 910.2495 199.8492)" fill="#FFF100" width="86.457" height="5.774"/>
	
		<rect x="436.604" y="101.123" transform="matrix(-1 -0.0062 0.0062 -1 905.5287 208.2234)" fill="#FFF100" width="32.966" height="3.167"/>
	
		<rect x="439.473" y="104.247" transform="matrix(-1 -0.0063 0.0063 -1 904.8055 217.3365)" fill="#FFF100" width="26.543" height="5.995"/>
	
		<rect x="480.762" y="101.312" transform="matrix(-1 -0.0062 0.0062 -1 978.7611 208.8224)" fill="#FFF100" width="17.885" height="3.165"/>
	
		<rect x="483.726" y="104.275" transform="matrix(-1 -0.0063 0.0063 -1 975.5562 217.8612)" fill="#FFF100" width="8.787" height="6.248"/>
	
		<rect x="491.338" y="103.556" transform="matrix(-1 -0.0062 0.0062 -1 986.5084 213.9979)" fill="#FFF100" width="4.495" height="3.831"/>
	
		<rect x="427.478" y="106.136" transform="matrix(-1 -0.0063 0.0063 -1 860.427 221.1291)" fill="#FFFFFF" width="6.162" height="6.163"/>
	
		<rect x="471.532" y="106.412" transform="matrix(-1 -0.0061 0.0061 -1 948.5487 221.8815)" fill="#FFFFFF" width="6.162" height="6.163"/>
	
		<rect x="492.748" y="82.745" transform="matrix(-1 -0.0059 0.0059 -1 990.9832 170.5016)" fill="#040000" width="5.993" height="2.065"/>
	
		<rect x="491.455" y="84.78" transform="matrix(-1 -0.0064 0.0064 -1 988.3516 174.7033)" fill="#040000" width="5.997" height="2.005"/>
	
		<rect x="493.935" y="80.375" transform="matrix(-1 -0.0059 0.0059 -1 993.3756 166.106)" fill="#040000" width="5.998" height="2.405"/>
	
		<rect x="440.29" y="77.418" transform="matrix(-1 -0.0062 0.0062 -1 912.3253 160.734)" fill="#040000" width="32.245" height="3.065"/>
	
		<rect x="438.012" y="80.499" transform="matrix(-1 -0.0062 0.0062 -1 912.2676 166.8948)" fill="#040000" width="36.761" height="3.067"/>
	
		<rect x="435.725" y="83.561" transform="matrix(-1 -0.0062 0.0062 -1 909.9438 173.0079)" fill="#040000" width="39.03" height="3.068"/>
	
		<rect x="409.803" y="89.686" transform="matrix(-1 -0.0062 0.0062 -1 907.9344 185.2384)" fill="#040000" width="88.902" height="3.051"/>
	
		<rect x="409.705" y="104.989" transform="matrix(-1 -0.0063 0.0063 -1 830.7803 217.3928)" fill="#040000" width="12.052" height="4.805"/>
	
		<rect x="439.463" y="105.471" transform="matrix(-1 -0.0062 0.0062 -1 904.7903 218.5507)" fill="#040000" width="26.543" height="4.804"/>
	
		<rect x="483.746" y="105.684" transform="matrix(-1 -0.0061 0.0061 -1 978.8962 219.1594)" fill="#040000" width="12.073" height="4.803"/>
	<g>
		
			<rect x="424.643" y="101.211" transform="matrix(-1 -0.0061 0.0061 -1 860.5485 221.2026)" fill="#040000" width="11.937" height="16.158"/>
		
			<rect x="425.158" y="100.465" transform="matrix(-0.0063 1 -1 -0.0063 542.5529 -320.5258)" fill="#040000" width="10.762" height="17.71"/>
	</g>
	<g>
		
			<rect x="468.945" y="101.511" transform="matrix(-1 -0.0062 0.0062 -1 949.1335 222.1314)" fill="#040000" width="11.935" height="16.159"/>
		
			<rect x="469.477" y="100.75" transform="matrix(-0.006 1 -1 -0.006 587.3057 -364.5878)" fill="#040000" width="10.763" height="17.711"/>
	</g>
	
		<rect x="426.495" y="105.211" transform="matrix(-1 -0.0063 0.0063 -1 860.5089 221.3493)" fill="#FFFFFF" width="8.217" height="8.216"/>
	
		<rect x="470.805" y="105.47" transform="matrix(-1 -0.0062 0.0062 -1 949.1354 222.1172)" fill="#FFFFFF" width="8.219" height="8.217"/>
</g>
<circle fill="#00A0E9" cx="454.963" cy="255.119" r="139.673"/>
</svg>
