<?xml version="1.0" encoding="utf-8"?>
<!-- Generator: Adobe Illustrator 16.0.3, SVG Export Plug-In . SVG Version: 6.00 Build 0)  -->
<!DOCTYPE svg PUBLIC "-//W3C//DTD SVG 1.1//EN" "http://www.w3.org/Graphics/SVG/1.1/DTD/svg11.dtd">
<svg version="1.1" id="圖層_1" xmlns="http://www.w3.org/2000/svg" xmlns:xlink="http://www.w3.org/1999/xlink" x="0px" y="0px"
	 width="43.622px" height="90.623px" viewBox="407.924 202.605 43.622 90.623"
	 enable-background="new 407.924 202.605 43.622 90.623" xml:space="preserve">
<g>
	
		<rect x="433.554" y="277.763" transform="matrix(-0.0176 0.9998 -0.9998 -0.0176 722.7019 -150.416)" fill="#FFF100" width="3.388" height="4.164"/>
	
		<rect x="392.12" y="240.977" transform="matrix(-0.0176 0.9998 -0.9998 -0.0176 664.4645 -162.929)" fill="#FFF100" width="40.312" height="7.995"/>
	
		<rect x="394.279" y="240.453" transform="matrix(-0.0176 0.9998 -0.9998 -0.0176 669.6917 -167.8806)" fill="#FFF100" width="46.084" height="9.214"/>
	
		<rect x="395.446" y="240.628" transform="matrix(-0.0176 0.9998 -0.9998 -0.0176 673.8316 -171.6085)" fill="#FFF100" width="51.554" height="9.212"/>
	
		<rect x="383.284" y="240.938" transform="matrix(-0.0176 0.9998 -0.9998 -0.0176 677.5876 -174.8976)" fill="#FFF100" width="82.866" height="8.996"/>
	
		<rect x="384.003" y="243.304" transform="matrix(-0.0176 0.9998 -0.9998 -0.0176 681.1274 -175.5587)" fill="#FFF100" width="85.617" height="7.076"/>
	
		<rect x="428.248" y="278.306" transform="matrix(-0.0173 0.9999 -0.9999 -0.0173 728.7498 -142.2296)" fill="#FFF100" width="12.05" height="17.435"/>
	
		<rect x="388.837" y="244.463" transform="matrix(-0.0176 0.9998 -0.9998 -0.0176 686.9788 -180.2918)" fill="#FFF100" width="86.451" height="5.774"/>
	
		<rect x="419.733" y="248.156" transform="matrix(-0.0176 0.9998 -0.9998 -0.0176 693.5903 -182.0137)" fill="#FFF100" width="32.963" height="3.166"/>
	
		<rect x="427.538" y="247.158" transform="matrix(-0.0176 0.9998 -0.9998 -0.0176 698.6787 -186.1848)" fill="#FFF100" width="26.54" height="5.995"/>
	
		<rect x="427.898" y="211.549" transform="matrix(-0.0176 0.9998 -0.9998 -0.0176 657.6424 -219.8811)" fill="#FFF100" width="17.883" height="3.165"/>
	
		<rect x="436.905" y="211.637" transform="matrix(-0.0177 0.9998 -0.9998 -0.0177 663.8237 -222.6744)" fill="#FFF100" width="8.788" height="6.248"/>
	
		<rect x="437.213" y="207.365" transform="matrix(-0.0178 0.9998 -0.9998 -0.0178 656.5367 -226.381)" fill="#FFF100" width="4.495" height="3.831"/>
	
		<rect x="439.407" y="269.263" transform="matrix(-0.0176 0.9998 -0.9998 -0.0176 722.574 -165.2855)" fill="#FFFFFF" width="6.163" height="6.163"/>
	
		<rect x="440.237" y="225.187" transform="matrix(-0.0171 0.9999 -0.9999 -0.0171 679.1411 -211.0785)" fill="#FFFFFF" width="6.163" height="6.164"/>
	
		<rect x="414.783" y="205.881" transform="matrix(-0.0174 0.9998 -0.9998 -0.0174 631.9458 -207.194)" fill="#040000" width="5.992" height="2.065"/>
	
		<rect x="416.814" y="207.19" transform="matrix(-0.0176 0.9998 -0.9998 -0.0176 635.3568 -207.8927)" fill="#040000" width="5.997" height="2.006"/>
	
		<rect x="412.626" y="204.422" transform="matrix(-0.0174 0.9998 -0.9998 -0.0174 628.4595 -206.3547)" fill="#040000" width="5.998" height="2.406"/>
	
		<rect x="396.377" y="244.609" transform="matrix(-0.0176 0.9998 -0.9998 -0.0176 665.8476 -161.9693)" fill="#040000" width="32.242" height="3.065"/>
	
		<rect x="397.219" y="244.672" transform="matrix(-0.0176 0.9998 -0.9998 -0.0176 669.0876 -164.9916)" fill="#040000" width="36.76" height="3.069"/>
	
		<rect x="399.124" y="245.854" transform="matrix(-0.0176 0.9998 -0.9998 -0.0176 673.3616 -166.8271)" fill="#040000" width="39.028" height="3.067"/>
	
		<rect x="380.294" y="246.92" transform="matrix(-0.0176 0.9998 -0.9998 -0.0176 680.6222 -171.8587)" fill="#040000" width="88.894" height="3.049"/>
	
		<rect x="434.485" y="284.758" transform="matrix(-0.0177 0.9998 -0.9998 -0.0177 735.4431 -148.1867)" fill="#040000" width="12.054" height="4.804"/>
	
		<rect x="428.133" y="247.765" transform="matrix(-0.0176 0.9998 -0.9998 -0.0176 699.2946 -186.7686)" fill="#040000" width="26.54" height="4.803"/>
	
		<rect x="435.939" y="210.685" transform="matrix(-0.0176 0.9998 -0.9998 -0.0176 662.8215 -225.0622)" fill="#040000" width="12.072" height="4.802"/>
	<g>
		
			<rect x="436.61" y="264.221" transform="matrix(-0.0173 0.9998 -0.9998 -0.0173 722.5132 -165.4897)" fill="#040000" width="11.937" height="16.158"/>
		
			<rect x="437.21" y="263.512" transform="matrix(0.9998 0.0177 -0.0177 0.9998 4.889 -7.7892)" fill="#040000" width="10.761" height="17.711"/>
	</g>
	<g>
		
			<rect x="437.399" y="219.923" transform="matrix(-0.0175 0.9998 -0.9998 -0.0175 679.0956 -211.3044)" fill="#040000" width="11.933" height="16.156"/>
		
			<rect x="438" y="219.198" transform="matrix(0.9998 0.0173 -0.0173 0.9998 4.0194 -7.6507)" fill="#040000" width="10.761" height="17.711"/>
	</g>
	
		<rect x="438.484" y="268.195" transform="matrix(-0.0177 0.9998 -0.9998 -0.0177 722.6902 -165.3977)" fill="#FFFFFF" width="8.217" height="8.216"/>
	
		<rect x="439.272" y="223.897" transform="matrix(-0.0176 0.9998 -0.9998 -0.0176 679.1488 -211.2985)" fill="#FFFFFF" width="8.219" height="8.216"/>
</g>
</svg>
