<?xml version="1.0" encoding="utf-8"?>
<!-- Generator: Adobe Illustrator 16.0.3, SVG Export Plug-In . SVG Version: 6.00 Build 0)  -->
<!DOCTYPE svg PUBLIC "-//W3C//DTD SVG 1.1//EN" "http://www.w3.org/Graphics/SVG/1.1/DTD/svg11.dtd">
<svg version="1.1" id="圖層_1" xmlns="http://www.w3.org/2000/svg" xmlns:xlink="http://www.w3.org/1999/xlink" x="0px" y="0px"
	 width="88.771px" height="43.442px" viewBox="379.612 234.18 88.771 43.442" enable-background="new 379.612 234.18 88.771 43.442"
	 xml:space="preserve">
<g>
	
		<rect x="391.154" y="258.369" transform="matrix(0.9992 0.0409 -0.0409 0.9992 10.978 -15.8466)" fill="#1700FF" width="3.295" height="4.052"/>
	
		<rect x="407.636" y="234.993" transform="matrix(0.9991 0.0416 -0.0416 0.9991 10.3083 -17.5682)" fill="#B5B5B6" width="39.223" height="7.781"/>
	
		<rect x="404.628" y="239.305" transform="matrix(0.9991 0.0416 -0.0416 0.9991 10.5131 -17.5571)" fill="#B5B5B6" width="44.842" height="8.968"/>
	
		<rect x="401.69" y="243.115" transform="matrix(0.9991 0.0416 -0.0416 0.9991 10.6695 -17.5392)" fill="#B5B5B6" width="50.167" height="8.973"/>
	
		<rect x="386.198" y="246.586" transform="matrix(0.9991 0.0416 -0.0416 0.9991 10.8075 -17.5231)" fill="#0000FF" width="80.638" height="8.752"/>
	
		<rect x="383.438" y="249.532" transform="matrix(0.9991 0.0416 -0.0416 0.9991 10.892 -17.4653)" fill="#1700FF" width="83.311" height="6.884"/>
	
		<rect x="379.979" y="250.805" transform="matrix(0.9991 0.0416 -0.0416 0.9991 11.1107 -15.8133)" fill="#0000FF" width="11.724" height="16.965"/>
	
		<rect x="382.419" y="255.252" transform="matrix(0.9991 0.0416 -0.0416 0.9991 11.1044 -17.4375)" fill="#0000FF" width="84.123" height="5.618"/>
	
		<rect x="406.009" y="260.529" transform="matrix(0.9991 0.0416 -0.0416 0.9991 11.2726 -17.3379)" fill="#0000FF" width="32.076" height="3.079"/>
	
		<rect x="408.65" y="263.567" transform="matrix(0.9991 0.0416 -0.0416 0.9991 11.4493 -17.3044)" fill="#1700FF" width="25.826" height="5.835"/>
	
		<rect x="448.949" y="261.986" transform="matrix(0.9991 0.0415 -0.0415 0.9991 11.3259 -18.758)" fill="#0000FF" width="17.397" height="3.08"/>
	
		<rect x="451.701" y="264.759" transform="matrix(0.9991 0.0417 -0.0417 0.9991 11.5616 -18.7778)" fill="#0000FF" width="8.549" height="6.079"/>
	
		<rect x="459.148" y="264.29" transform="matrix(0.9991 0.042 -0.042 0.9991 11.5728 -19.1212)" fill="#0000FF" width="4.376" height="3.726"/>
	
		<rect x="396.89" y="264.666" transform="matrix(0.9991 0.0415 -0.0415 0.9991 11.4598 -16.3748)" fill="#FFFFFF" width="5.997" height="5.996"/>
	
		<rect x="439.748" y="266.424" transform="matrix(0.9991 0.0414 -0.0414 0.9991 11.5299 -18.0929)" fill="#FFFFFF" width="5.993" height="5.998"/>
	
		<rect x="461.254" y="244.084" transform="matrix(0.9991 0.0419 -0.0419 0.9991 10.6662 -19.2155)" fill="#B5B5B6" width="5.832" height="2.004"/>
	
		<rect x="459.945" y="246.073" transform="matrix(0.9991 0.0415 -0.0415 0.9991 10.6472 -18.989)" fill="#B5B5B6" width="5.838" height="1.955"/>
	
		<rect x="462.506" y="241.844" transform="matrix(0.9991 0.0419 -0.0419 0.9991 10.5805 -19.2697)" fill="#B5B5B6" width="5.832" height="2.336"/>
	
		<rect x="410.429" y="237.571" transform="matrix(0.9991 0.0416 -0.0416 0.9991 10.3151 -17.5214)" fill="#040000" width="31.371" height="2.984"/>
	
		<rect x="408.092" y="240.588" transform="matrix(0.9991 0.0416 -0.0416 0.9991 10.441 -17.5139)" fill="#040000" width="35.77" height="2.985"/>
	
		<rect x="405.768" y="243.515" transform="matrix(0.9991 0.0416 -0.0416 0.9991 10.5609 -17.4592)" fill="#040000" width="37.98" height="2.987"/>
	
		<rect x="380.34" y="249.429" transform="matrix(0.9991 0.0416 -0.0416 0.9991 10.8057 -17.4056)" fill="#0000FF" width="86.498" height="2.971"/>
	
		<rect x="379.705" y="263.001" transform="matrix(0.9991 0.0416 -0.0416 0.9991 11.3853 -15.8278)" fill="#B5B5B6" width="11.724" height="4.672"/>
	
		<rect x="408.615" y="264.743" transform="matrix(0.9991 0.0416 -0.0416 0.9991 11.4742 -17.3027)" fill="#0000FF" width="25.825" height="4.673"/>
	
		<rect x="451.671" y="266.23" transform="matrix(0.9991 0.0416 -0.0416 0.9991 11.5543 -18.7796)" fill="#B5B5B6" width="11.751" height="4.671"/>
	<g>
		
			<rect x="394.149" y="259.868" transform="matrix(0.9991 0.0415 -0.0415 0.9991 11.4647 -16.3802)" fill="#040000" width="11.615" height="15.725"/>
		
			<rect x="394.672" y="259.083" transform="matrix(0.0416 -0.9991 0.9991 0.0416 115.7863 656.1163)" fill="#040000" width="10.472" height="17.238"/>
	</g>
	<g>
		
			<rect x="437.229" y="261.663" transform="matrix(0.9991 0.0415 -0.0415 0.9991 11.5753 -18.1664)" fill="#040000" width="11.616" height="15.724"/>
		
			<rect x="437.748" y="260.878" transform="matrix(0.0419 -0.9991 0.9991 0.0419 155.1774 700.8069)" fill="#040000" width="10.472" height="17.235"/>
	</g>
	
		<rect x="395.965" y="263.727" transform="matrix(0.9991 0.0418 -0.0418 0.9991 11.5371 -16.4797)" fill="#FFFFFF" width="7.992" height="7.995"/>
	
		<rect x="439.051" y="265.511" transform="matrix(0.9991 0.0414 -0.0414 0.9991 11.5424 -18.1185)" fill="#FFFFFF" width="7.993" height="7.996"/>
</g>
</svg>
