<?xml version="1.0" encoding="utf-8"?>
<!-- Generator: Adobe Illustrator 16.0.3, SVG Export Plug-In . SVG Version: 6.00 Build 0)  -->
<!DOCTYPE svg PUBLIC "-//W3C//DTD SVG 1.1//EN" "http://www.w3.org/Graphics/SVG/1.1/DTD/svg11.dtd">
<svg version="1.1" id="圖層_1" xmlns="http://www.w3.org/2000/svg" xmlns:xlink="http://www.w3.org/1999/xlink" x="0px" y="0px"
	 width="357.611px" height="262.612px" viewBox="178.669 126.429 357.611 262.612"
	 enable-background="new 178.669 126.429 357.611 262.612" xml:space="preserve">
<g>
	<g>
		<g>
			<path fill="#A9DAE3" d="M243.777,151.712c0-21.891,25.741-21.891,25.741,0"/>
			<path fill="#A9DAE3" d="M299.573,151.712c0-21.891,30.113-21.891,30.113,0"/>
			<path fill="#A9DAE3" d="M265.499,151.712c0-33.71,40.417-33.71,40.417,0"/>
		</g>
	</g>
</g>
<g>
	<g>
		<g>
			<path fill="#A9DAE3" d="M469.592,242.202c0-16.993,19.981-16.993,19.981,0"/>
			<path fill="#A9DAE3" d="M512.906,242.202c0-16.993,23.374-16.993,23.374,0"/>
			<path fill="#A9DAE3" d="M486.453,242.202c0-26.168,31.374-26.168,31.374,0"/>
		</g>
	</g>
</g>
<g>
	<g>
		<path fill="#FFFFFF" d="M427.84,250.254c0.012,2.137,0.012,3.969,0.022,6.073c2.067-0.021,4.032-0.021,6.086-0.033
			c0.023,8.252,0.049,16.278,0.07,24.475c-2.169,0.021-4.266,0.021-6.548,0.021c0.013,2.061-0.049,4.143-0.038,5.943
			c-1.639,0-9.623,0-12.148,0c-0.013-3.883-0.021-7.432-0.03-11.571c-2.062,0-3.976-0.032-6.077,0c0-2.125,0.003-4.317-0.002-6.14
			c-1.581-0.004-24.521-0.129-24.521-0.129s0.032,4.152,0.037,6.269c-2.143,0.032-4.08,0-6.226,0
			c-0.099,4.132,0.045,7.787-0.037,11.81c-4.229,0.01-8.285,0.01-12.549,0.043c-0.271-8.964,0.058-17.927-0.167-27.02
			c-2.028,0-4.191,0.037-6.208,0.047c0.014,0.805,0,1.732,0,2.516c-1.332,0-9.608,0.012-12.141,0.004
			c-0.011-3.938-0.021-7.885-0.038-11.952c4.082-0.01,8.067-0.02,12.179-0.053c-0.028,0.955,0,1.791,0,2.831
			c1.979-0.011,4.093-0.016,6.175-0.016c-0.022-6.008-0.033-11.94-0.057-18.023c4.197,0,8.221-0.022,12.46-0.031
			c0.012,6.05,0.032,12.047,0.045,18.174c8.276-0.021,16.352-0.065,24.635-0.065c-0.005-3.063-0.018-6.062-0.018-9.092
			c-0.01-2.978-0.023-6.033-0.035-8.955c1.801,0,12.569,0,12.569,0s0.026,9.764,0.267,14.897
			C419.658,250.265,423.633,250.265,427.84,250.254z"/>
		<path fill="#FFFFFF" d="M331.323,235.51c-0.01-2.191-0.01-4.256-0.01-6.262c-0.93,0-1.858,0.027-2.663,0
			c0-1.327-0.003-9.605,0-11.882c3.883-0.01,7.731-0.01,11.744-0.021c0.011,3.927,0.019,7.891,0.03,11.903
			c-0.751,0-1.484,0-2.38-0.015c0,1.932,0.015,4.064,0.02,6.211c7.12-0.021,14.185-0.043,21.336-0.065
			c0.01,3.042,0.015,5.889,0.031,8.986c-6.082,0.086-12.161,0.021-18.434,0.086c0.037,8.187,0.137,16.424,0.158,24.567
			c-8.283,0.031-16.457-0.233-24.772-0.213c0,1.133,0,2.062,0,2.998c0,0.938,0.011,1.887,0.011,3.042c-2.072,0-3.98,0-6.116,0.011
			c0.005,4.144,0.022,8.111,0.033,12.179c-4.235,0.021-8.253,0.044-12.465,0.055c-0.005-1.94-0.005-3.829-0.016-5.879
			c-2.086,0-4.001,0-5.852,0c-0.441-1.435-0.588-22.198-0.188-24.399c1.858-0.01,3.764-0.01,5.909-0.01
			c0-1.963-0.011-3.71-0.011-5.653c5.996-0.014,10.238,0.003,12.484,0.003c0-5.238,0-10.374-0.038-15.59
			C317.226,235.541,324.172,235.53,331.323,235.51z"/>
		<path fill="#FFFFFF" d="M396.476,235.378c0.006,3.991,0.04,7.937,0.05,11.776c-1.479,0-10.418,0-12.138,0
			c-0.012-3.895-0.026-11.776-0.026-11.776h2.71c0,0-0.013-4.074-0.013-6.211c-7.102,0.034-14.1,0.043-21.208,0.076
			c-0.011-3.096-0.021-5.986-0.031-9.126c2.048-0.076,4.087-0.044,6.11-0.044c2.012-0.021,4.007-0.021,6.003-0.021
			c2.048-0.012,4.098-0.012,6.293-0.022c-0.027-8.156-0.059-16.159-0.081-24.428c-2.005,0-4.041,0-6.072,0
			c-2,0-3.996,0.011-5.998,0.011c-2.049,0.011-4.098,0.011-6.341,0.019c-0.216-4.063-0.098-7.949-0.136-11.973
			c12.422-0.035,24.674-0.073,37.146-0.099c0.007,1.944,0.013,3.818,0.013,5.884c2.064-0.006,3.914-0.009,5.949-0.016
			c0.005,2.07,0.009,3.958,0.021,6.106c2.188-0.001,4.206-0.015,6.324-0.015c0.039,11.274,0.189,22.544,0.228,33.729
			c-1.804,0-19.579,0-21.442,0c0,2.05,0.006,4.08,0.018,6.13C394.619,235.378,395.394,235.378,396.476,235.378z"/>
		<path fill="#FFFFFF" d="M310.176,195.752c1.988,0,3.803,0.009,5.928-0.007c-0.01-2.046-0.021-3.923-0.033-5.982
			c2.115-0.002,4.036-0.002,6.193-0.016c0-2.104-0.011-4.022-0.022-6.04c12.47-0.038,24.68-0.073,37.104-0.102
			c0.011,6.911,0.039,13.795,0.055,20.833c2.157,0,4.28-0.037,6.325-0.037c0-0.856,0-1.567-0.007-2.337
			c1.353-0.028,8.817-0.04,11.912-0.028c-0.005,1.239-0.005,8.827-0.005,11.959c-3.952,0-7.791,0-11.9,0c0-0.99,0-1.878,0-2.791
			c-1.979,0.016-4.049,0.005-6.239,0.005c0.01,2.963,0.017,5.92,0.021,8.874c0.011,2.989,0.021,5.954,0.026,9.191
			c-4.277,0.03-8.419,0.042-12.652,0.042c-0.081-6.168-0.088-12.063-0.081-18.108c-8.328,0.02-16.255,0.092-24.625,0.108
			c0.021,5.952,0.033,11.873,0.054,17.936c-4.131,0.022-8.168-0.027-12.055-0.005C310.176,227.843,310.176,199.209,310.176,195.752z
			"/>
		<path fill="#FFFFFF" d="M359.26,268.995c0.022,6.146,0.038,12.066,0.055,18.095c-4.042,0.033-7.986,0.033-12.129,0.044
			c-0.015-4.033-0.026-8.002-0.037-12.207c-2.091,0-3.977,0.021-5.981,0.021c0-2.094-0.004-3.958-0.011-5.922
			C344.866,269.021,350.806,269.024,359.26,268.995z"/>
		<polygon fill="#FFFFFF" points="390.656,275.162 402.902,275.162 402.934,280.79 408.824,280.854 408.975,293.076 
			403.069,293.088 403.098,299.203 390.741,299.235 390.735,293.174 384.654,293.194 384.62,280.834 390.611,280.821 		"/>
		<polygon fill="#FFFFFF" points="322.518,275.162 334.879,275.183 334.89,280.876 341.129,280.856 341.246,293.249 
			334.873,293.249 334.873,299.512 322.921,299.58 322.895,293.442 316.54,293.454 316.504,281.147 322.532,281.126 		"/>
	</g>
	<g>
		<path fill="#FFFFFF" d="M305.447,323.179h15.223v3.808h-22.832v-19.027h22.832v3.809h-15.223V323.179L305.447,323.179z"/>
		<path fill="#FFFFFF" d="M324.474,307.957h22.831v19.026h-22.831v-11.414h15.222v-3.806h-15.222V307.957z M339.696,319.375h-7.611
			v3.804h7.611V319.375z"/>
		<path fill="#FFFFFF" d="M358.72,326.983h-7.609v-19.026h19.026v3.808h3.805v3.806h-3.805v3.807h3.805v7.609h-7.609v-7.609h-7.612
			L358.72,326.983L358.72,326.983z M358.72,315.569h7.612v-3.806h-7.612V315.569z"/>
		<path fill="#FFFFFF" d="M385.359,323.179h15.221v3.808h-22.831v-19.027h22.831v3.809h-15.221V323.179z"/>
		<path fill="#FFFFFF" d="M404.385,307.957h22.832v19.026h-22.832v-11.414h15.223v-3.806h-15.223V307.957z M419.608,319.375h-7.612
			v3.804h7.612V319.375z"/>
	</g>
</g>
<g>
	<g>
		<g>
			<path fill="#A9DAE3" d="M368.541,389.041c0-28.96,29.72-28.96,29.72,0"/>
			<path fill="#A9DAE3" d="M432.961,389.041c0-28.96,34.766-28.96,34.766,0"/>
			<path fill="#A9DAE3" d="M393.619,389.041c0-44.595,46.662-44.595,46.662,0"/>
		</g>
	</g>
</g>
<g>
	<g>
		<g>
			<path fill="#A9DAE3" d="M224.299,289.589c0-38.058-45.63-38.058-45.63,0"/>
			<path fill="#A9DAE3" d="M248.672,289.589c0-29.627-35.522-29.627-35.522,0"/>
		</g>
	</g>
</g>
</svg>
