<?xml version="1.0" encoding="utf-8"?>
<!-- Generator: Adobe Illustrator 16.0.3, SVG Export Plug-In . SVG Version: 6.00 Build 0)  -->
<!DOCTYPE svg PUBLIC "-//W3C//DTD SVG 1.1//EN" "http://www.w3.org/Graphics/SVG/1.1/DTD/svg11.dtd">
<svg version="1.1" id="圖層_1" xmlns="http://www.w3.org/2000/svg" xmlns:xlink="http://www.w3.org/1999/xlink" x="0px" y="0px"
	 width="142.712px" height="143.55px" viewBox="0 0 142.712 143.55" enable-background="new 0 0 142.712 143.55"
	 xml:space="preserve">
<g>
	<g>
		<path fill-rule="evenodd" clip-rule="evenodd" fill="#FFFFFF" stroke="#E71E18" stroke-width="0.25" stroke-miterlimit="10" d="
			M136.407,66.82c0.012,2.137,0.012,3.969,0.023,6.073c2.068-0.021,4.033-0.021,6.086-0.032c0.024,8.251,0.049,16.277,0.071,24.474
			c-2.169,0.021-4.266,0.021-6.548,0.021c0.012,2.061-0.049,4.142-0.038,5.944c-1.639,0-9.623,0-12.149,0
			c-0.013-3.884-0.021-7.431-0.031-11.572c-2.061,0-3.975-0.032-6.077,0c0-2.125,0.003-4.317-0.002-6.14
			c-1.581-0.004-24.521-0.128-24.521-0.128s0.032,4.153,0.037,6.268c-2.143,0.032-4.08,0-6.226,0
			c-0.098,4.132,0.045,7.787-0.037,11.81c-4.229,0.01-8.285,0.01-12.549,0.042c-0.271-8.963,0.058-17.926-0.168-27.02
			c-2.028,0-4.191,0.039-6.208,0.049c0.014,0.803,0,1.732,0,2.514c-1.332,0-9.608,0.013-12.14,0.005
			c-0.011-3.938-0.022-7.885-0.038-11.952c4.082-0.01,8.067-0.02,12.178-0.053c-0.028,0.955,0,1.791,0,2.831
			c1.979-0.011,4.093-0.016,6.175-0.016c-0.022-6.008-0.033-11.94-0.056-18.023c4.197,0,8.22-0.022,12.46-0.031
			c0.011,6.05,0.032,12.047,0.044,18.174c8.277-0.021,16.352-0.065,24.635-0.065c-0.005-3.063-0.017-6.062-0.017-9.092
			c-0.01-2.978-0.024-6.033-0.036-8.955c1.801,0,12.57,0,12.57,0s0.026,9.764,0.266,14.897
			C128.226,66.831,132.2,66.831,136.407,66.82z"/>
		<path fill-rule="evenodd" clip-rule="evenodd" fill="#FFFFFF" stroke="#E71E18" stroke-width="0.25" stroke-miterlimit="10" d="
			M39.89,52.076c-0.01-2.191-0.01-4.256-0.01-6.262c-0.93,0-1.858,0.027-2.663,0c0-1.327-0.003-9.605,0-11.882
			c3.883-0.01,7.731-0.01,11.744-0.021c0.011,3.927,0.019,7.891,0.03,11.903c-0.751,0-1.484,0-2.38-0.015
			c0,1.932,0.015,4.064,0.02,6.211c7.12-0.021,14.185-0.043,21.336-0.065c0.01,3.042,0.015,5.889,0.031,8.986
			c-6.082,0.086-12.161,0.021-18.433,0.086c0.037,8.187,0.136,16.424,0.158,24.567c-8.283,0.033-16.457-0.233-24.773-0.212
			c0,1.133,0,2.061,0,2.999c0,0.938,0.011,1.886,0.011,3.042c-2.072,0-3.98,0-6.116,0.01c0.005,4.143,0.022,8.112,0.033,12.178
			c-4.235,0.021-8.253,0.044-12.465,0.055c-0.005-1.941-0.005-3.829-0.016-5.879c-2.086,0-4.001,0-5.851,0
			c-0.442-1.434-0.588-22.199-0.188-24.398c1.859-0.012,3.764-0.012,5.91-0.012c0-1.962-0.011-3.709-0.011-5.652
			c5.996-0.014,10.238,0.003,12.484,0.003c0-5.238,0-10.374-0.038-15.59C25.793,52.107,32.739,52.096,39.89,52.076z"/>
		<path fill-rule="evenodd" clip-rule="evenodd" fill="#FFFFFF" stroke="#E71E18" stroke-width="0.25" stroke-miterlimit="10" d="
			M105.042,51.944c0.006,3.991,0.04,7.937,0.05,11.776c-1.479,0-10.418,0-12.138,0c-0.012-3.895-0.026-11.776-0.026-11.776h2.71
			c0,0-0.013-4.074-0.013-6.211c-7.101,0.034-14.1,0.043-21.208,0.076c-0.011-3.096-0.021-5.986-0.031-9.126
			c2.048-0.076,4.087-0.044,6.11-0.044c2.012-0.02,4.007-0.02,6.003-0.02c2.048-0.012,4.098-0.012,6.293-0.023
			c-0.027-8.156-0.058-16.159-0.081-24.428c-2.005,0-4.041,0-6.072,0c-2,0-3.996,0.011-5.998,0.011
			c-2.049,0.011-4.098,0.011-6.341,0.019c-0.216-4.063-0.099-7.949-0.136-11.973c12.422-0.035,24.674-0.073,37.147-0.099
			c0.006,1.944,0.012,3.818,0.012,5.884c2.065-0.006,3.914-0.009,5.95-0.016c0.004,2.07,0.008,3.958,0.021,6.106
			c2.188-0.001,4.206-0.015,6.324-0.015c0.039,11.274,0.19,22.544,0.228,33.729c-1.804,0-19.579,0-21.443,0
			c0,2.05,0.006,4.08,0.018,6.13C103.187,51.944,103.96,51.944,105.042,51.944z"/>
		<path fill-rule="evenodd" clip-rule="evenodd" fill="#FFFFFF" stroke="#E71E18" stroke-width="0.25" stroke-miterlimit="10" d="
			M18.743,12.318c1.989,0,3.803,0.009,5.928-0.007c-0.01-2.046-0.021-3.923-0.033-5.982c2.115-0.002,4.036-0.002,6.193-0.016
			c0-2.104-0.011-4.022-0.022-6.04c12.469-0.038,24.679-0.073,37.104-0.102c0.011,6.911,0.039,13.795,0.055,20.833
			c2.157,0,4.28-0.037,6.326-0.037c0-0.856,0-1.567-0.008-2.337c1.354-0.028,8.818-0.04,11.912-0.028
			c-0.005,1.239-0.005,8.827-0.005,11.959c-3.952,0-7.791,0-11.899,0c0-0.99,0-1.878,0-2.791c-1.98,0.016-4.05,0.005-6.239,0.005
			c0.01,2.963,0.016,5.92,0.021,8.874c0.011,2.989,0.021,5.954,0.027,9.191c-4.278,0.03-8.419,0.042-12.653,0.042
			c-0.081-6.168-0.088-12.063-0.081-18.108c-8.328,0.02-16.255,0.092-24.625,0.108c0.021,5.952,0.033,11.873,0.054,17.936
			c-4.131,0.022-8.168-0.027-12.055-0.005C18.743,44.409,18.743,15.775,18.743,12.318z"/>
		<path fill-rule="evenodd" clip-rule="evenodd" fill="#FFFFFF" stroke="#E71E18" stroke-width="0.25" stroke-miterlimit="10" d="
			M67.827,85.561c0.023,6.147,0.038,12.067,0.055,18.095c-4.042,0.033-7.986,0.033-12.129,0.044
			c-0.015-4.034-0.026-8.002-0.037-12.207c-2.091,0-3.977,0.021-5.982,0.021c0-2.093-0.003-3.958-0.01-5.922
			C53.434,85.586,59.373,85.591,67.827,85.561z"/>
		
			<polygon fill-rule="evenodd" clip-rule="evenodd" fill="#FFFFFF" stroke="#E71E18" stroke-width="0.25" stroke-miterlimit="10" points="
			99.222,91.728 111.468,91.728 111.5,97.356 117.392,97.421 117.542,109.642 111.635,109.654 111.665,115.769 99.309,115.801 
			99.301,109.74 93.22,109.76 93.188,97.4 99.177,97.388 		"/>
		
			<polygon fill-rule="evenodd" clip-rule="evenodd" fill="#FFFFFF" stroke="#E71E18" stroke-width="0.25" stroke-miterlimit="10" points="
			31.084,91.728 43.445,91.749 43.457,97.442 49.695,97.422 49.814,109.815 43.44,109.815 43.44,116.078 31.488,116.146 
			31.461,110.009 25.107,110.02 25.07,97.714 31.1,97.692 		"/>
	</g>
	<g>
		<path fill="#FFFFFF" d="M14.014,139.745h15.222v3.806H6.404v-19.027h22.832v3.808H14.014V139.745z"/>
		<path fill="#FFFFFF" d="M33.041,124.523h22.831v19.027H33.041v-11.415h15.222v-3.805H33.041V124.523z M48.262,135.941H40.65v3.804
			h7.612V135.941z"/>
		<path fill="#FFFFFF" d="M67.287,143.55h-7.609v-19.027h19.026v3.808h3.805v3.805h-3.805v3.806h3.805v7.609h-7.609v-7.609h-7.612
			V143.55z M67.287,132.135h7.612v-3.805h-7.612V132.135z"/>
		<path fill="#FFFFFF" d="M93.925,139.745h15.221v3.806H86.315v-19.027h22.831v3.808H93.925V139.745z"/>
		<path fill="#FFFFFF" d="M112.952,124.523h22.832v19.027h-22.832v-11.415h15.223v-3.805h-15.223V124.523z M128.174,135.941h-7.612
			v3.804h7.612V135.941z"/>
	</g>
</g>
</svg>
