<?xml version="1.0" encoding="utf-8"?>
<!-- Generator: Adobe Illustrator 16.0.3, SVG Export Plug-In . SVG Version: 6.00 Build 0)  -->
<!DOCTYPE svg PUBLIC "-//W3C//DTD SVG 1.1//EN" "http://www.w3.org/Graphics/SVG/1.1/DTD/svg11.dtd">
<svg version="1.1" id="圖層_1" xmlns="http://www.w3.org/2000/svg" xmlns:xlink="http://www.w3.org/1999/xlink" x="0px" y="0px"
	 width="415.659px" height="65.591px" viewBox="107.424 290.042 415.659 65.591"
	 enable-background="new 107.424 290.042 415.659 65.591" xml:space="preserve">
<g>
	<path fill="#FFFFFF" d="M184.466,327.748c0.004,1.207,0.004,2.244,0.011,3.434c1.17-0.013,2.28-0.013,3.441-0.019
		c0.013,4.664,0.027,9.2,0.042,13.836c-1.226,0.013-2.413,0.013-3.702,0.013c0.006,1.165-0.029,2.34-0.023,3.358
		c-0.925,0-5.441,0-6.867,0c-0.006-2.193-0.012-4.2-0.018-6.542c-1.166,0-2.246-0.019-3.437,0c0-1.199,0.002-2.438,0-3.47
		c-0.893-0.003-13.864-0.073-13.864-0.073s0.02,2.348,0.021,3.543c-1.21,0.02-2.305,0-3.519,0c-0.054,2.336,0.026,4.402-0.021,6.677
		c-2.391,0.005-4.683,0.005-7.095,0.023c-0.152-5.066,0.033-10.134-0.096-15.273c-1.144,0-2.369,0.022-3.509,0.027
		c0.009,0.454,0,0.979,0,1.422c-0.753,0-5.43,0.006-6.863,0.002c-0.005-2.226-0.012-4.459-0.021-6.757
		c2.307-0.006,4.56-0.012,6.883-0.031c-0.016,0.541,0,1.014,0,1.602c1.12-0.006,2.315-0.01,3.493-0.01
		c-0.014-3.395-0.019-6.75-0.031-10.188c2.372,0,4.647-0.013,7.042-0.02c0.007,3.422,0.02,6.813,0.025,10.274
		c4.68-0.013,9.245-0.036,13.928-0.036c-0.004-1.732-0.01-3.426-0.01-5.142c-0.006-1.683-0.014-3.409-0.021-5.063
		c1.017,0,7.106,0,7.106,0s0.016,5.521,0.148,8.422C179.84,327.753,182.087,327.753,184.466,327.748z"/>
	<path fill="#FFFFFF" d="M129.902,319.412c-0.006-1.237-0.006-2.404-0.006-3.539c-0.526,0-1.051,0.016-1.505,0
		c0-0.75-0.001-5.431,0-6.716c2.196-0.008,4.371-0.008,6.64-0.014c0.006,2.22,0.011,4.462,0.017,6.729c-0.425,0-0.839,0-1.346-0.008
		c0,1.092,0.009,2.297,0.012,3.511c4.025-0.013,8.019-0.022,12.061-0.037c0.007,1.721,0.009,3.329,0.019,5.08
		c-3.439,0.049-6.875,0.012-10.42,0.049c0.021,4.628,0.077,9.285,0.089,13.89c-4.683,0.019-9.303-0.134-14.004-0.12
		c0,0.641,0,1.165,0,1.694s0.005,1.066,0.005,1.72c-1.17,0-2.249,0-3.457,0.007c0.003,2.342,0.012,4.585,0.019,6.885
		c-2.394,0.011-4.665,0.023-7.046,0.03c-0.003-1.099-0.003-2.165-0.009-3.324c-1.18,0-2.262,0-3.308,0
		c-0.25-0.812-0.333-12.548-0.106-13.792c1.052-0.006,2.127-0.006,3.341-0.006c0-1.11-0.006-2.099-0.006-3.195
		c3.389-0.01,5.787,0.002,7.056,0.002c0-2.962,0-5.866-0.021-8.813C121.932,319.429,125.859,319.425,129.902,319.412z"/>
	<path fill="#FFFFFF" d="M166.734,319.337c0.002,2.256,0.022,4.485,0.028,6.657c-0.837,0-5.891,0-6.863,0
		c-0.006-2.2-0.014-6.657-0.014-6.657h1.531c0,0-0.008-2.303-0.008-3.51c-4.013,0.018-7.968,0.023-11.987,0.043
		c-0.007-1.752-0.013-3.385-0.019-5.16c1.159-0.043,2.311-0.023,3.454-0.023c1.138-0.013,2.264-0.013,3.394-0.013
		c1.158-0.007,2.315-0.007,3.556-0.013c-0.014-4.61-0.032-9.135-0.045-13.81c-1.133,0-2.283,0-3.433,0
		c-1.13,0-2.258,0.007-3.39,0.007c-1.159,0.006-2.317,0.006-3.586,0.01c-0.12-2.297-0.054-4.493-0.075-6.768
		c7.021-0.021,13.948-0.041,21-0.058c0.003,1.1,0.006,2.159,0.006,3.327c1.167-0.004,2.213-0.005,3.363-0.009
		c0.003,1.17,0.005,2.236,0.013,3.453c1.238,0,2.378-0.01,3.575-0.01c0.022,6.374,0.107,12.744,0.129,19.067
		c-1.02,0-11.069,0-12.124,0c0,1.159,0.004,2.306,0.01,3.465C165.686,319.337,166.121,319.337,166.734,319.337z"/>
	<path fill="#FFFFFF" d="M117.946,296.936c1.125,0,2.151,0.007,3.352-0.003c-0.006-1.156-0.013-2.217-0.019-3.382
		c1.196-0.001,2.281-0.001,3.5-0.009c0-1.188-0.006-2.273-0.011-3.415c7.048-0.021,13.951-0.041,20.975-0.057
		c0.005,3.905,0.022,7.799,0.03,11.777c1.221,0,2.421-0.021,3.577-0.021c0-0.483,0-0.887-0.004-1.322
		c0.764-0.014,4.983-0.021,6.734-0.014c-0.004,0.699-0.004,4.99-0.004,6.76c-2.231,0-4.402,0-6.726,0c0-0.561,0-1.062,0-1.577
		c-1.119,0.01-2.289,0.002-3.527,0.002c0.006,1.676,0.008,3.348,0.012,5.019c0.005,1.688,0.012,3.365,0.015,5.194
		c-2.417,0.018-4.759,0.023-7.152,0.023c-0.046-3.486-0.049-6.817-0.046-10.236c-4.707,0.012-9.188,0.054-13.92,0.063
		c0.012,3.362,0.019,6.712,0.031,10.139c-2.335,0.013-4.618-0.016-6.816-0.003C117.946,315.078,117.946,298.891,117.946,296.936z"/>
	<path fill="#FFFFFF" d="M145.695,338.343c0.012,3.474,0.021,6.819,0.03,10.229c-2.285,0.019-4.515,0.019-6.856,0.022
		c-0.009-2.278-0.015-4.521-0.021-6.899c-1.181,0-2.248,0.013-3.382,0.013c0-1.183-0.001-2.237-0.005-3.349
		C137.558,338.356,140.915,338.358,145.695,338.343z"/>
	<polygon fill="#FFFFFF" points="163.444,341.828 170.365,341.828 170.385,345.011 173.715,345.046 173.8,351.957 170.462,351.961 
		170.476,355.419 163.493,355.438 163.489,352.01 160.049,352.022 160.032,345.035 163.418,345.028 	"/>
	<polygon fill="#FFFFFF" points="124.924,341.828 131.912,341.838 131.917,345.06 135.445,345.046 135.511,352.053 131.909,352.053 
		131.909,355.593 125.152,355.633 125.137,352.164 121.545,352.169 121.524,345.212 124.932,345.2 	"/>
</g>
<g>
	<path fill="#FFFFFF" stroke="#FFFFFF" stroke-miterlimit="10" d="M213.059,326.623h26.531v4.422h-17.687v4.422h17.687v13.267
		h-26.531v-4.423h17.688v-4.422h-17.688V326.623z"/>
	<path fill="#FFFFFF" stroke="#FFFFFF" stroke-miterlimit="10" d="M244.011,326.623h26.531v4.422h-8.843v17.688h-8.844v-17.688
		h-8.844V326.623L244.011,326.623z"/>
	<path fill="#FFFFFF" stroke="#FFFFFF" stroke-miterlimit="10" d="M283.807,348.732h-8.844v-22.109h26.531v22.109h-8.843v-8.845
		h-8.844V348.732L283.807,348.732z M283.807,335.466h8.844v-4.422h-8.844V335.466z"/>
	<path fill="#FFFFFF" stroke="#FFFFFF" stroke-miterlimit="10" d="M314.759,348.732h-8.844v-22.109h26.531v8.844h-4.422v4.422h4.422
		v8.845h-8.844v-8.845h-8.844V348.732L314.759,348.732z M314.759,335.466h8.845v-4.422h-8.845V335.466z"/>
	<path fill="#FFFFFF" stroke="#FFFFFF" stroke-miterlimit="10" d="M336.869,326.623h26.529v4.422h-8.842v17.688h-8.844v-17.688
		h-8.844V326.623L336.869,326.623z"/>
	<path fill="#FFFFFF" stroke="#FFFFFF" stroke-miterlimit="10" d="M412.039,335.466h13.266v13.267h-26.53v-22.109h26.53v4.422
		h-17.688v13.266h8.844v-4.422h-4.422V335.466z"/>
	<path fill="#FFFFFF" stroke="#FFFFFF" stroke-miterlimit="10" d="M438.57,348.732h-8.844v-22.109h26.531v22.109h-8.844v-8.845
		h-8.844V348.732L438.57,348.732z M438.57,335.466h8.844v-4.422h-8.844V335.466z"/>
	<path fill="#FFFFFF" stroke="#FFFFFF" stroke-miterlimit="10" d="M469.521,348.732h-8.844v-22.109h8.844v4.422h4.422v4.422h4.422
		v-4.422h4.422v-4.422h8.844v22.109h-8.844v-8.845h-4.422v4.422h-4.422v-4.422h-4.422V348.732z"/>
	<path fill="#FFFFFF" stroke="#FFFFFF" stroke-miterlimit="10" d="M496.052,326.623h26.531v4.422h-17.688v4.422h8.844v4.422h-8.844
		v4.422h17.688v4.423h-26.531V326.623L496.052,326.623z"/>
</g>
</svg>
