<?xml version="1.0" encoding="utf-8"?>
<!-- Generator: Adobe Illustrator 16.0.3, SVG Export Plug-In . SVG Version: 6.00 Build 0)  -->
<!DOCTYPE svg PUBLIC "-//W3C//DTD SVG 1.1//EN" "http://www.w3.org/Graphics/SVG/1.1/DTD/svg11.dtd">
<svg version="1.1" id="圖層_1" xmlns="http://www.w3.org/2000/svg" xmlns:xlink="http://www.w3.org/1999/xlink" x="0px" y="0px"
	 width="850.391px" height="510.24px" viewBox="0 0 850.391 510.24" enable-background="new 0 0 850.391 510.24"
	 xml:space="preserve">
<g enable-background="new    ">
	<path fill="#FFFFFF" d="M264.944,243.659h21.848v3.641h-7.283v14.565h-7.282V247.3h-7.283V243.659z"/>
	<path fill="#FFFFFF" d="M297.715,261.865h-7.283v-18.206h21.848v18.206h-7.283v-7.282h-7.282V261.865z M297.715,250.941h7.282
		V247.3h-7.282V250.941z"/>
	<path fill="#FFFFFF" d="M315.921,243.659h21.848v7.282h-3.641v3.642h3.641v7.282h-21.848V243.659z M323.204,250.941h7.282V247.3
		h-7.282V250.941z M323.204,258.223h7.282v-3.641h-7.282V258.223z"/>
	<path fill="#FFFFFF" d="M366.899,243.659h21.848v3.641h-7.283v14.565h-7.282V247.3h-7.283V243.659z"/>
	<path fill="#FFFFFF" d="M392.387,243.659h21.848v18.206h-21.848V243.659z M399.67,258.223h7.282V247.3h-7.282V258.223z"/>
	<path fill="#FFFFFF" d="M443.365,243.659h21.848v3.641h-14.565v3.642h14.565v10.924h-21.848v-3.642h14.564v-3.641h-14.564V243.659z
		"/>
	<path fill="#FFFFFF" d="M468.853,243.659h21.848v3.641h-7.283v14.565h-7.281V247.3h-7.283V243.659z"/>
	<path fill="#FFFFFF" d="M501.625,261.865h-7.283v-18.206h21.848v18.206h-7.282v-7.282h-7.282V261.865z M501.625,250.941h7.282
		V247.3h-7.282V250.941z"/>
	<path fill="#FFFFFF" d="M527.113,261.865h-7.282v-18.206h21.848v7.282h-3.642v3.642h3.642v7.282h-7.282v-7.282h-7.283V261.865z
		 M527.113,250.941h7.283V247.3h-7.283V250.941z"/>
	<path fill="#FFFFFF" d="M545.32,243.659h21.848v3.641h-7.283v14.565h-7.282V247.3h-7.282V243.659z"/>
</g>
</svg>
