<?xml version="1.0" encoding="utf-8"?>
<!-- Generator: Adobe Illustrator 16.0.3, SVG Export Plug-In . SVG Version: 6.00 Build 0)  -->
<!DOCTYPE svg PUBLIC "-//W3C//DTD SVG 1.1//EN" "http://www.w3.org/Graphics/SVG/1.1/DTD/svg11.dtd">
<svg version="1.1" id="圖層_1" xmlns="http://www.w3.org/2000/svg" xmlns:xlink="http://www.w3.org/1999/xlink" x="0px" y="0px"
	 width="850.394px" height="510.236px" viewBox="-127.559 165.827 850.394 510.236"
	 enable-background="new -127.559 165.827 850.394 510.236" xml:space="preserve">
<rect x="-126.559" y="165.827" fill="#02051C" width="850.394" height="510.236"/>
<path fill="#FFFF00" stroke="#FFFFFF" stroke-width="15" stroke-miterlimit="10" d="M143.104,511.204
	c0,25.063-25.382,45.379-56.693,45.379H-43.314c-31.311,0-56.693-20.315-56.693-45.379V238.562
	c0-25.062,25.382-45.379,56.693-45.379H86.411c31.311,0,56.693,20.317,56.693,45.379V511.204z"/>
<path fill="#FF268C" stroke="#FFFFFF" stroke-width="15" stroke-miterlimit="10" d="M696.566,511.603
	c0,25.063-25.382,45.38-56.692,45.38H510.151c-31.311,0-56.692-20.316-56.692-45.38V238.962c0-25.063,25.382-45.378,56.692-45.378
	h129.723c31.311,0,56.692,20.316,56.692,45.378V511.603z"/>
<path fill="#009AFF" stroke="#FFFFFF" stroke-width="15" stroke-miterlimit="10" d="M420.193,510.155
	c0,25.062-25.382,45.378-56.692,45.378H233.776c-31.311,0-56.691-20.316-56.691-45.378V237.513
	c0-25.062,25.381-45.379,56.691-45.379h129.725c31.311,0,56.692,20.317,56.692,45.379V510.155z"/>
<g>
	<g>
		<rect x="-24.972" y="256.179" width="31.817" height="65.823"/>
		<rect x="-18.971" y="301.391" width="31.816" height="31.616"/>
		<rect x="-7.718" y="312.542" width="31.817" height="31.616"/>
	</g>
	<g>
		<rect x="31.929" y="256.305" width="31.816" height="65.825"/>
		<rect x="25.927" y="301.516" width="31.816" height="31.616"/>
		<rect x="14.675" y="312.669" width="31.817" height="31.616"/>
	</g>
	<rect x="-20.316" y="260.835" fill="#E71E18" width="22.505" height="56.514"/>
	<rect x="-14.315" y="306.046" fill="#E71E18" width="22.506" height="22.305"/>
	<rect x="-3.062" y="317.198" fill="#E71E18" width="22.506" height="22.305"/>
	<g>
		<rect x="36.697" y="260.836" fill="#18499D" width="22.505" height="56.515"/>
		<rect x="30.695" y="306.046" fill="#18499D" width="22.506" height="22.305"/>
		<rect x="19.444" y="317.198" fill="#18499D" width="22.504" height="22.305"/>
	</g>
	<rect x="-20.316" y="260.835" fill="#C0B2B1" width="22.505" height="11.002"/>
	<rect x="36.535" y="260.835" fill="#C0B2B1" width="22.667" height="11.002"/>
</g>
<g>
	<polygon fill="#040000" points="-36.888,397.636 -36.888,394.324 -39.313,394.324 -39.313,397.636 -53.448,397.636 
		-53.448,373.565 -39.313,373.565 -39.313,376.876 -36.888,376.876 -36.888,373.565 -22.754,373.565 -22.754,397.636 	"/>
	<path fill="#FFFFFF" d="M-43.07,393.881h-6.624v-16.563h6.624v3.315h3.313v3.31h3.313v-3.31h3.312v-3.315h6.624v16.563h-6.624
		v-6.624h-3.312v3.311h-3.313v-3.311h-3.313V393.881z"/>
	<rect x="-26.953" y="373.565" fill="#040000" width="27.384" height="24.07"/>
	<path fill="#FFFFFF" d="M-16.573,393.881h-6.624v-16.563h19.871v16.563h-6.624v-6.624h-6.624V393.881L-16.573,393.881z
		 M-16.573,383.946h6.624v-3.312h-6.624V383.946z"/>
	<rect x="-3.768" y="373.565" fill="#040000" width="27.384" height="24.07"/>
	<path fill="#FFFFFF" d="M9.922,383.946h9.936v9.936H-0.012v-16.563h19.871v3.315H6.611v9.935h6.625v-3.311H9.922V383.946
		L9.922,383.946z"/>
	<rect x="19.416" y="373.565" fill="#040000" width="27.384" height="24.07"/>
	<path fill="#FFFFFF" d="M29.797,393.881h-6.625v-16.563h6.625v3.315h3.311v3.31h3.313v-6.625h6.624v16.561H36.42v-3.311h-3.313
		v-3.311h-3.311V393.881z"/>
	<polygon fill="#040000" points="42.601,397.636 42.601,373.565 69.983,373.565 69.983,384.387 63.358,384.387 63.358,386.813 
		69.983,386.813 69.983,397.636 	"/>
	<path fill="#FFFFFF" d="M46.356,377.319h19.873v3.315H52.98v3.31h6.625v3.313H52.98v3.311h13.249v3.314H46.356V377.319
		L46.356,377.319z"/>
	<polygon fill="#040000" points="72.408,397.636 72.408,384.387 65.784,384.387 65.784,373.565 93.168,373.565 93.168,384.387 
		86.543,384.387 86.543,397.636 	"/>
	<path fill="#FFFFFF" d="M69.54,377.319h19.872v3.315h-6.625v13.246h-6.625v-13.246H69.54V377.319L69.54,377.319z"/>
</g>
<g>
	<rect x="524.894" y="296.93" width="26.55" height="14.899"/>
	<rect x="536.461" y="311.621" width="14.982" height="8.192"/>
	<rect x="559.301" y="245.591" width="46.6" height="15.159"/>
	<rect x="554.444" y="251.343" width="56.798" height="12.603"/>
	<rect x="562.406" y="248.697" fill="#35ACFF" width="40.39" height="8.948"/>
	<rect x="549.963" y="254.538" width="65.798" height="48.117"/>
	<rect x="557.551" y="254.448" fill="#35ACFF" width="50.585" height="6.392"/>
	<rect x="546.005" y="260.93" width="73.18" height="38.987"/>
	<rect x="553.067" y="257.645" fill="#35ACFF" width="59.588" height="41.906"/>
	<rect x="542.582" y="267.32" width="80.39" height="27.849"/>
	<rect x="549.111" y="264.036" fill="#35ACFF" width="66.967" height="32.777"/>
	<rect x="545.688" y="270.427" fill="#35ACFF" width="74.181" height="21.637"/>
	<rect x="558.942" y="266.047" fill="#FFFFFF" width="47.438" height="31.132"/>
	<rect x="565.065" y="259.655" fill="#FFFFFF" width="34.985" height="43.238"/>
	<rect x="553.015" y="271.4" fill="#FFFFFF" width="59.161" height="19.807"/>
	<rect x="568.657" y="273.026" width="5.112" height="14.775"/>
	<rect x="563.235" y="297.806" width="11.988" height="39.93"/>
	<rect x="588.241" y="273.224" width="5.112" height="14.775"/>
	<rect x="554.827" y="299.615" width="11.991" height="12.214"/>
	<rect x="536.642" y="305.618" width="27.287" height="12.214"/>
	<rect x="557.934" y="302.721" fill="#FFFFFF" width="5.778" height="6.002"/>
	<rect x="571.784" y="298.156" width="11.991" height="39.929"/>
	<rect x="580.55" y="298.156" width="11.991" height="39.929"/>
	<rect x="546.866" y="308.724" fill="#FFFFFF" width="13.956" height="6.003"/>
	<rect x="589.972" y="298.156" width="11.99" height="39.929"/>
	<rect x="583.655" y="301.262" fill="#FFFFFF" width="5.779" height="33.717"/>
	<rect x="589.972" y="324.908" width="17.908" height="13.177"/>
	<rect x="557.441" y="325.107" width="17.906" height="13.177"/>
	<rect x="593.077" y="301.262" fill="#FFFFFF" width="5.779" height="33.717"/>
	<rect x="593.077" y="328.013" fill="#FFFFFF" width="11.696" height="6.966"/>
	<rect x="600.321" y="299.615" width="11.991" height="12.214"/>
	<rect x="612.014" y="299.615" width="11.991" height="12.214"/>
	<rect x="560.548" y="327.663" fill="#FFFFFF" width="11.696" height="6.967"/>
	<rect x="603.211" y="305.618" width="17.903" height="12.214"/>
	<rect x="603.428" y="302.721" fill="#FFFFFF" width="5.778" height="6.002"/>
	<rect x="615.12" y="302.721" fill="#FFFFFF" width="5.778" height="6.002"/>
	<rect x="606.317" y="308.724" fill="#FFFFFF" width="11.691" height="6.003"/>
	<rect x="528" y="300.036" fill="#0000FF" width="20.338" height="8.688"/>
	<rect x="539.567" y="307.636" fill="#0000FF" width="8.771" height="9.074"/>
	<rect x="566.501" y="300.845" fill="#FFFFFF" width="5.779" height="33.717"/>
	<rect x="574.889" y="301.262" fill="#FFFFFF" width="5.782" height="33.717"/>
	<rect x="552.866" y="297.179" fill="#FF0000" width="59.789" height="5.715"/>
</g>
<g>
	<rect x="525.32" y="356.288" width="25.432" height="22.408"/>
	<path fill="#FFFFFF" d="M528.965,359.932h18.143v3.023h-12.094v3.024h12.094v9.073h-18.143v-3.025h12.097v-3.024h-12.097V359.932z"
		/>
	<polygon points="552.537,381.718 552.537,378.695 546.49,378.695 546.49,356.288 571.922,356.288 571.922,378.695 565.874,378.695 
		565.874,381.718 	"/>
	<path fill="#FFFFFF" d="M550.133,359.932h18.146v15.12h-6.049v3.022h-6.049v-3.022h-6.049V359.932z M556.182,372.026h6.049v-9.072
		h-6.049V372.026z"/>
	<rect x="567.659" y="356.288" width="25.432" height="22.408"/>
	<path fill="#FFFFFF" d="M571.303,359.932h6.045v12.095h6.051v-12.095h6.048v15.12h-18.144V359.932z"/>
	<rect x="588.828" y="356.288" width="13.333" height="22.408"/>
	<path fill="#FFFFFF" d="M592.472,359.932h6.046v15.12h-6.046V359.932z"/>
	<polygon points="597.898,378.695 597.898,356.288 620.308,356.288 620.308,359.311 623.33,359.311 623.33,375.67 620.308,375.67 
		620.308,378.695 	"/>
	<path fill="#FFFFFF" d="M601.543,359.932h15.119v3.023h3.024v9.072h-3.024v3.025h-15.119V359.932z M607.591,372.026h6.047v-9.072
		h-6.047V372.026z"/>
	<polygon points="547.729,403.084 547.729,382.475 560.342,382.475 560.342,393.132 571.004,393.132 571.004,403.084 	"/>
	<path fill="#FFFFFF" d="M551.373,386.118h5.326v10.659h10.66v2.664h-15.986V386.118z"/>
	<rect x="566.377" y="382.475" width="23.275" height="20.609"/>
	<path fill="#FFFFFF" d="M570.021,386.118h15.986v13.322h-15.986v-7.993h10.655v-2.665h-10.655V386.118z M580.677,394.111h-5.329
		v2.666h5.329V394.111z"/>
	<rect x="585.024" y="382.475" width="23.277" height="20.609"/>
	<path fill="#FFFFFF" d="M588.671,386.118h15.986v2.665h-10.661v2.665h10.661v7.993h-15.986v-2.664h10.655v-2.666h-10.655V386.118z"
		/>
	<polygon points="603.676,403.084 603.676,382.475 626.95,382.475 626.95,392.426 621.622,392.426 621.622,393.132 626.95,393.132 
		626.95,403.084 	"/>
	<path fill="#FFFFFF" d="M607.32,386.118h15.985v2.665h-10.658v2.665h5.33v2.664h-5.33v2.666h10.658v2.664H607.32V386.118z"/>
	<rect x="622.326" y="382.475" width="23.273" height="20.609"/>
	<path fill="#FFFFFF" d="M631.298,399.44h-5.329v-13.322h15.988v5.329h-2.667v2.664h2.667v5.329h-5.333v-5.329h-5.326V399.44z
		 M631.298,391.447h5.326v-2.665h-5.326V391.447z"/>
</g>
<g>
	<g>
		
			<rect x="303.286" y="303.556" transform="matrix(0.4434 -0.8963 0.8963 0.4434 -114.486 454.181)" width="10.35" height="31.437"/>
		
			<rect x="304.176" y="308.997" transform="matrix(0.4436 -0.8962 0.8962 0.4436 -116.9008 456.6789)" width="10.351" height="26.985"/>
		<polygon fill="#FF0000" points="319.008,327.2 321.157,322.856 297.915,311.349 295.769,315.691 		"/>
		
			<rect x="305.028" y="314.271" transform="matrix(0.4437 -0.8962 0.8962 0.4437 -119.2398 459.1451)" width="10.35" height="22.688"/>
		
			<rect x="306.708" y="311.392" transform="matrix(-0.4439 0.8961 -0.8961 -0.4439 735.5833 187.7603)" fill="#FF0000" width="5.643" height="21.481"/>
		
			<rect x="305.537" y="318.995" transform="matrix(0.4441 -0.896 0.896 0.4441 -121.6665 461.0464)" width="10.353" height="19.153"/>
		
			<rect x="307.498" y="316.568" transform="matrix(-0.4438 0.8961 -0.8961 -0.4438 739.5851 191.2846)" fill="#FF0000" width="5.866" height="17.18"/>
		
			<rect x="308.292" y="321.748" transform="matrix(-0.4437 0.8962 -0.8962 -0.4437 743.041 195.9226)" fill="#FF0000" width="4.844" height="13.644"/>
	</g>
	
		<rect x="305.736" y="301.44" transform="matrix(-0.4562 0.8899 -0.8899 -0.4562 730.3838 185.6927)" fill="#FF0000" width="5.441" height="29.126"/>
	<g>
		
			<rect x="319.636" y="271.817" transform="matrix(-0.4562 0.8899 -0.8899 -0.4562 728.854 129.6464)" width="10.351" height="31.437"/>
		<rect x="322.751" y="272.846" transform="matrix(-0.456 0.89 -0.89 -0.456 732.3041 125.0806)" width="10.351" height="26.987"/>
		
			<rect x="322.389" y="274.57" transform="matrix(0.456 -0.89 0.89 0.456 -79.207 445.4877)" fill="#FF0000" width="4.846" height="25.932"/>
		<rect x="325.77" y="273.819" transform="matrix(-0.456 0.89 -0.89 -0.456 735.6499 120.6731)" width="10.35" height="22.687"/>
		
			<rect x="324.924" y="275.953" transform="matrix(0.4558 -0.8901 0.8901 0.4558 -76.8314 447.7156)" fill="#FF0000" width="5.641" height="21.481"/>
		<rect x="328.448" y="274.237" transform="matrix(-0.456 0.89 -0.89 -0.456 738.3378 116.2973)" width="10.351" height="19.151"/>
		
			<rect x="327.778" y="277.028" transform="matrix(0.456 -0.89 0.89 0.456 -74.283 449.7103)" fill="#FF0000" width="5.866" height="17.178"/>
		
			<rect x="331.2" y="276.99" transform="matrix(0.4563 -0.8898 0.8898 0.4563 -71.1435 451.1963)" fill="#FF0000" width="4.848" height="13.644"/>
	</g>
	<rect x="283.065" y="261.706" transform="matrix(-0.456 0.89 -0.89 -0.456 701.1204 162.3075)" width="35.786" height="67.432"/>
	<g>
		<polygon points="242.437,275.81 251.016,259.067 286.957,277.489 278.381,294.231 		"/>
		<polygon points="244.646,281.672 257.173,257.229 287.273,272.659 274.754,297.102 		"/>
		
			<rect x="258.384" y="259.547" transform="matrix(0.4559 -0.8901 0.8901 0.4559 -102.1993 386.1321)" fill="#FF0000" width="12.627" height="34.205"/>
		
			<rect x="248.625" y="265.957" transform="matrix(-0.4561 0.8899 -0.8899 -0.4561 635.2051 167.3827)" width="35.65" height="23.708"/>
		
			<rect x="255.322" y="263.343" transform="matrix(0.4559 -0.89 0.89 0.4559 -101.9802 387.5069)" fill="#FF0000" width="21.279" height="27.645"/>
		
			<rect x="251.718" y="269.047" transform="matrix(0.456 -0.89 0.89 0.456 -102.2966 388.2678)" fill="#FF0000" width="29.466" height="17.528"/>
	</g>
	
		<rect x="325.86" y="306.323" transform="matrix(-0.4561 0.8899 -0.8899 -0.4561 769.8272 157.8675)" width="21.625" height="15.71"/>
	
		<rect x="328.396" y="301.203" transform="matrix(-0.4561 0.8899 -0.8899 -0.4561 769.8254 157.8615)" width="16.553" height="25.952"/>
	
		<rect x="328.952" y="309.415" transform="matrix(0.4561 -0.8899 0.8899 0.4561 -96.4828 470.4873)" fill="#FF0000" width="15.443" height="9.526"/>
	<rect x="339.786" y="310.653" transform="matrix(-0.4559 0.89 -0.89 -0.4559 786.618 156.5153)" width="11.369" height="16.069"/>
	
		<rect x="331.487" y="304.292" transform="matrix(0.456 -0.89 0.89 0.456 -96.4642 470.5403)" fill="#FF0000" width="10.369" height="19.773"/>
	
		<rect x="342.878" y="313.745" transform="matrix(0.4559 -0.89 0.89 0.4559 -95.6705 480.8784)" fill="#FF0000" width="5.184" height="9.883"/>
	<polygon fill="#FFFFFF" points="334.959,296.218 321.459,322.562 266.957,294.625 280.455,268.282 	"/>
	
		<rect x="333.548" y="307.26" transform="matrix(0.4561 -0.8899 0.8899 0.4561 -96.5672 469.2696)" fill="#FFFF00" width="4.118" height="12.744"/>
</g>
<g>
	<polygon points="228.796,397.371 228.796,394.074 227.049,394.074 227.049,397.371 212.319,397.371 212.319,372.756 
		227.049,372.756 227.049,376.053 228.796,376.053 228.796,372.756 243.525,372.756 243.525,397.371 	"/>
	<path fill="#FFFFFF" d="M222.98,393.303h-6.592v-16.479h6.592v3.296h3.295v3.296h3.295v-3.296h3.295v-3.296h6.592v16.479h-6.592
		v-6.59h-3.295v3.292h-3.295v-3.292h-3.295V393.303z"/>
	<polygon points="238.685,397.371 238.685,385.937 245.273,385.937 245.273,384.191 238.685,384.191 238.685,372.756 
		266.591,372.756 266.591,384.191 260.001,384.191 260.001,385.937 266.591,385.937 266.591,397.371 	"/>
	<path fill="#FFFFFF" d="M242.751,376.824h19.771v3.296h-6.589v9.885h6.589v3.297h-19.771v-3.297h6.589v-9.885h-6.589V376.824z"/>
	<rect x="261.75" y="372.756" width="27.908" height="24.615"/>
	<path fill="#FFFFFF" d="M265.818,376.824h19.772v3.296h-13.184v3.296h13.184v9.886h-19.772v-3.297h13.18v-3.292h-13.18V376.824z"/>
	<rect x="284.815" y="372.756" width="27.911" height="24.615"/>
	<path fill="#FFFFFF" d="M288.883,376.824h19.773v3.296h-13.18v3.296h13.18v9.886h-19.773v-3.297h13.184v-3.292h-13.184V376.824z"/>
	<polygon points="307.883,397.371 307.883,385.937 314.472,385.937 314.472,384.191 307.883,384.191 307.883,372.756 
		335.793,372.756 335.793,384.191 329.203,384.191 329.203,385.937 335.793,385.937 335.793,397.371 	"/>
	<path fill="#FFFFFF" d="M311.952,376.824h19.771v3.296h-6.59v9.885h6.59v3.297h-19.771v-3.297h6.589v-9.885h-6.589V376.824z"/>
	<polygon points="330.949,397.371 330.949,372.756 345.677,372.756 345.677,385.937 358.858,385.937 358.858,397.371 	"/>
	<path fill="#FFFFFF" d="M335.019,376.824h6.591v13.181h13.18v3.297h-19.771V376.824z"/>
	<polygon points="354.019,397.371 354.019,372.756 381.93,372.756 381.93,384.191 375.337,384.191 375.337,385.937 381.93,385.937 
		381.93,397.371 	"/>
	<path fill="#FFFFFF" d="M358.088,376.824h19.772v3.296h-13.183v3.296h6.59v3.296h-6.59v3.292h13.183v3.297h-19.772V376.824z"/>
</g>
<g>
	<path d="M242.302,449.17h-9.744v-9.879h-1.322v9.879h-4.805v-9.879h-1.377v7.288l-1.106,2.591h-5.075l1.458-2.861v-7.018h-1.323
		v-2.483h1.323v-3.077h-1.971l2.592-4.67h5.021l-1.62,3.023h0.702v4.724h1.377v-7.747h4.805v7.747h6.262v9.825h5.857L242.302,449.17
		z M242.032,435.755h-9.528v-7.585h-13.416v-2.511h18.355v7.585h5.669L242.032,435.755z M238.901,432.543l-1.026-3.212h3.779
		l1.025,3.212H238.901z M241.816,440.533h-3.914l1.484-3.725h3.806L241.816,440.533z M241.789,428.576h-3.833l1.296-2.942h3.806
		L241.789,428.576z M239.225,445.824l-1.269-4.454h3.806l1.27,4.454H239.225z"/>
	<path d="M247.546,449.117l-1.161-2.564h3.455v-5.695h-3.536v-9.043h3.455v-3.59h-3.832v-2.537h8.367v8.691h-3.401v3.914h3.401
		v10.824H247.546z M264.713,446.148v2.969h-4.615v-2.969h-5.236v-2.483h5.236v-1.053h-4.67v-9.528h13.955v9.528h-4.67v1.053h5.345
		v2.483H264.713z M255.104,432.219v-6.532h6.884v6.532H255.104z M258.991,428.089H258.1v1.728h0.892V428.089z M260.098,435.486
		h-1.593v1.16h1.593V435.486z M260.098,438.995h-1.593v1.188h1.593V438.995z M262.77,432.219v-6.532h6.91v6.532H262.77z
		 M266.333,435.486h-1.62v1.16h1.62V435.486z M266.333,438.995h-1.62v1.188h1.62V438.995z M266.657,428.089h-0.864v1.728h0.864
		V428.089z"/>
	<path d="M281.537,433.461l-0.324-1.485l-0.701,1.485h-7.234v-2.592l2.834-5.452h4.886l-2.78,5.425h2.727l-0.702-3.319h4.427
		l1.296,5.938H281.537z M279.837,449.17l-0.973-2.563h1.647v-1.755h-2.052v4.318h-4.805v-14.603h11.634v14.603H279.837z
		 M280.512,437.132h-2.052v1.295h2.052V437.132z M280.512,440.965h-2.052v1.35h2.052V440.965z M296.356,436.511h-9.987v-11.094
		h4.831v3.022h1.08l0.485-1.269h4.373l-1.053,3.86H291.2v3.077h6.047L296.356,436.511z M296.302,449.17h-9.906v-11.796h4.832v3.132
		h1.106l0.351-1.296h4.481l-0.891,3.806h-5.048v3.645h6.073L296.302,449.17z"/>
	<path d="M318.849,449.225l-3.374-5.479l-3.294,5.479h-5.398l3.32-5.453h-2.753v-2.456h4.237l0.945-1.619h-5.21v-8.368h5.533v-1.484
		h-5.587v-2.268l-1.998,6.938h0.972v14.711h-4.966V436.08h-1.647l3.078-10.689h5.155l-0.513,1.862h5.506v-1.862h4.967v1.862h6.182
		v2.592h-6.182v1.484h5.507v8.368h-5.426l-0.944,1.619h2.646l4.831,7.909H318.849z M312.855,433.866h-1.512v3.267h1.512V433.866z
		 M319.334,433.866h-1.512v3.267h1.512V433.866z"/>
	<path d="M327.358,430.492l-0.54-4.157h1.755l0.513,4.157H327.358z M327.007,433.893v-2.564h2.376v-5.885h3.698v5.885h0.863v-5.885
		h3.671v5.885h2.079v2.564H327.007z M327.196,449.306v-2.538l3.968-0.216v-2.348h-3.239v-2.483h3.239v-1.944h-3.806v-2.429h1.35
		l-0.756-2.78h4.184l0.837,2.78h1.106l1.026-2.78h4.156l-0.918,2.78h1.431v2.429h-3.806v1.944h3.374v2.483h-3.374v2.078l4.157-0.216
		v2.429L327.196,449.306z M339.559,430.492h-1.592l0.485-4.157h1.646L339.559,430.492z M349.924,432.3v16.925h-6.748l-1.134-2.538
		h3.212V432.3h-5.047v-2.618h5.047v-4.238h4.67v4.238h1.161v2.618H349.924z M341.124,445.014l-0.782-11.553h3.563l0.811,11.553
		H341.124z"/>
	<path d="M369.15,441.937v7.207h-9.906l-1.323-2.646h5.857v-4.562h-9.798v-2.699h9.798v-3.591h-8.448v-2.699h8.448v-3.671h-9.016
		v-2.726h16.79l0.378-1.215h5.804l-1.107,3.94h-7.477v3.671h8.179v2.699h-8.179v3.591h8.881v2.699H369.15z"/>
	<path d="M228.563,481.517v-0.594h-2.672l-0.972-3.752l-1.377,4.346h-4.589l3.239-10.365h-3.186v-2.564h3.348v-6.073h-0.486
		l-0.432,3.995h-2.591l0.998-8.719h2.538l-0.217,2.159h6.371v2.564h-1.701v6.073h2.43v2.564h-2.456l-0.486,1.565h1.646l1.458,6.263
		h1.457l-1.025-5.533h4.751l1.079,5.533h0.621l0.783-5.533h4.75l-0.782,5.533h1.971v2.537H228.563z M229.021,460.598v-2.538h13.793
		v2.538H229.021z M229.669,472.339v-9.96h12.417v9.96H229.669z M237.39,464.889h-2.97v4.859h2.97V464.889z"/>
	<path d="M254.024,460.868v0.891h3.887v6.235h-3.887v0.756h4.075v1.971h-4.075v1.079h-3.86v-1.079h-4.157v-1.971h4.157v-0.756
		h-3.887v-6.235h3.887v-0.891h-4.13v-1.916h4.13v-1.188h3.86v1.188h4.075v1.916H254.024z M247.303,481.625v-9.07h21.352v9.07
		H247.303z M250.164,463.378h-1.35v0.782h1.35V463.378z M250.164,465.591h-1.35v0.783h1.35V465.591z M263.688,474.85h-11.445v1.215
		h11.445V474.85z M263.688,478.116h-11.445v1.215h11.445V478.116z M255.4,463.378h-1.376v0.782h1.376V463.378z M255.4,465.591
		h-1.376v0.783h1.376V465.591z M269.032,461.083h-5.453v1.943h6.397v2.402h-1.079v6.37h-4.238v-6.37h-1.08v3.645l-1.106,2.726h-4.67
		l1.27-3.185v-9.934h5.992l0.27-0.863h4.778L269.032,461.083z"/>
	<path d="M292.307,481.463l-1.133-2.133l-0.783,2.187h-4.318l0.216-0.621l-13.146,0.729v-2.349l4.75-0.243v-1.269h-4.049v-2.213
		h4.049V474.5h-4.453v-8.962h4.453v-0.945h-4.858v-2.402h4.858v-0.944h-4.48v-2.321h8.152l0.485-1.08h4.913l-1.296,3.401h-3.428
		v0.944h4.562v2.402h-4.562v0.945h4.399v8.962h-4.399v1.053h4.075v2.213h-4.075v0.972l4.265-0.188v1.809l1.431-4.211V464.35h-0.729
		v-2.564h0.729v-3.941h3.94v3.941h4.805v19.678H292.307z M277.893,467.778h-1.188v1.161h1.188V467.778z M277.893,471.125h-1.188
		v1.161h1.188V471.125z M283.427,467.778h-1.188v1.161h1.188V467.778z M283.427,471.125h-1.188v1.161h1.188V471.125z
		 M292.793,464.35h-0.918v13.064l-0.54,1.538h1.458V464.35z"/>
	<path d="M301.546,481.517l-1.161-2.564h3.455v-5.695h-3.536v-9.043h3.455v-3.59h-3.832v-2.537h8.367v8.691h-3.401v3.914h3.401
		v10.824H301.546z M318.713,478.548v2.969h-4.615v-2.969h-5.236v-2.483h5.236v-1.053h-4.67v-9.528h13.955v9.528h-4.67v1.053h5.345
		v2.483H318.713z M309.104,464.62v-6.532h6.884v6.532H309.104z M312.991,460.49H312.1v1.728h0.892V460.49z M314.098,467.886h-1.593
		v1.16h1.593V467.886z M314.098,471.395h-1.593v1.188h1.593V471.395z M316.77,464.62v-6.532h6.91v6.532H316.77z M320.333,467.886
		h-1.62v1.16h1.62V467.886z M320.333,471.395h-1.62v1.188h1.62V471.395z M320.657,460.49h-0.864v1.728h0.864V460.49z"/>
	<path d="M339.586,460.733l-1.539,3.428h4.292v17.384h-5.29v-15.089l-4.859,10.743h-5.561l7.396-16.466h-6.856v-2.727h23.457v2.727
		H339.586z M346.091,477.28l-3.697-14.334h5.209l3.726,14.334H346.091z"/>
	<path d="M359.486,463.378h2.214l-2.349,6.127h0.999v12.12h-5.048v-11.121h-1.512l2.538-6.316h-2.402l2.618-6.425h5.183
		L359.486,463.378z M376.033,475.066v6.56h-5.587l-1.161-2.592h1.781v-3.968h-10.176v-2.672h10.176v-1.107h-9.663v-2.51h15.926v2.51
		h-1.296v1.107h1.998v2.672H376.033z M364.184,480.761l-2.214-5.102h5.183l2.214,5.102H364.184z M362.024,467.778v-9.718h15.035
		v9.718H362.024z M372.228,460.679h-5.345v0.998h5.345V460.679z M372.228,464.107h-5.345v1.08h5.345V464.107z"/>
</g>
<g>
	<path d="M517.636,439.022h-1.862l0.352-4.778l-0.945,1.971v12.956h-4.67v-10.041h-1.646l4.049-8.422h-3.644v-2.618h2.052
		l-0.756-2.646h4.886l0.756,2.646h1.403v2.97l-1.242,2.618h1.674L517.636,439.022z M528.622,449.17l-0.918-1.403l-0.782,1.403
		h-4.778l2.942-5.317l-2.213-3.401v5.938l-1.323,2.78h-4.831l1.241-2.726h-1.593l-0.836-6.56h1.835l0.783,6.127l0.27-0.566v-17.6
		h5.426v-2.402h4.643v2.402h4.292v6.235h-3.348v-3.644h-0.944v5.236h4.184v3.104l-2.78,5.021l3.536,5.371H528.622z M523.845,430.438
		h-0.972v5.236h0.972V430.438z M522.873,438.32v0.863h3.995l0.432,0.675l0.891-1.538H522.873z"/>
	<path d="M555.137,436.808v-5.507h-4.589v6.235h-4.939v-6.235h-4.616v5.507h-4.67v-7.882h9.286v-0.945h-8.665v-2.294h22.215v2.294
		h-8.61v0.945h9.259v7.882H555.137z M537.268,449.089v-10.878h21.621v10.878H537.268z M541.586,434.352v-2.133h3.374v2.133H541.586z
		 M541.586,437.321v-2.132h3.374v2.132H541.586z M545.554,440.75h-3.266v1.673h3.266V440.75z M545.554,444.636h-3.266v1.997h3.266
		V444.636z M553.868,440.75h-3.32v1.673h3.32V440.75z M553.868,444.636h-3.32v1.997h3.32V444.636z M551.195,434.352v-2.133h3.348
		v2.133H551.195z M551.195,437.321v-2.132h3.348v2.132H551.195z"/>
	<path d="M567.29,449.17h-4.399l1.997-6.613h4.373L567.29,449.17z M569.423,449.198l-1.161-2.537h2.105v-4.886h-7.233v-2.483h0.863
		v-12.039h2.078l0.513-1.674h4.913l-0.594,1.674h3.86v21.945H569.423z M570.367,429.736h-1.971v1.484h1.971V429.736z
		 M570.367,433.731h-1.971v1.512h1.971V433.731z M570.367,437.78h-1.971v1.512h1.971V437.78z M585.969,432.516v16.682h-7.423
		l-1.188-2.483h3.617v-14.198h-5.614v-2.51h5.614v-4.4h4.993v4.4h1.107v2.51H585.969z M576.171,444.285L575.388,434h4.292
		l0.783,10.284H576.171z"/>
	<path d="M613.536,449.17h-9.853v-10.743h-3.347v7.234l-3.617,3.509h-6.803l5.183-5.102v-5.642h-5.102v-2.726h9.475v-10.365h5.317
		v10.365h9.421v2.726h-5.345v7.963h5.479L613.536,449.17z M593.021,434.216l-2.456-7.261h5.479l2.456,7.261H593.021z
		 M611.188,434.216h-5.371l2.537-7.261h5.371L611.188,434.216z"/>
	<path d="M636.622,438.886l-1.484-0.998l-1.377,0.998h-15.898v-2.51h-0.783v-1.674h4.265v-0.675h-3.697v-5.371h3.697v-0.648h-4.075
		v-1.835h4.075v-0.811h4.347v0.811h3.887v1.835h-3.887v0.648h3.644v2.348l1.161-1.809v-3.563h9.313v3.32h1.728l-1.026,2.348h-4.696
		v-3.374h-1.404v1.998l-0.917,1.376h-4.157v2.727h-3.644v0.675h4.156v1.674h-0.701v2.187l3.347-2.402l-2.214-1.458h4.238
		l0.944-0.702h-5.425v-2.159h10.338v2.24l-2.672,1.917l4.237,2.888H636.622z M631.736,446.58v2.618h-8.098l-1.188-1.89h4.021v-0.729
		h-9.313v-2.024h9.313v-0.675h-8.07v-1.674h8.07v-0.675h-8.691v-1.835h17.761l0.189-0.459h4.939l-0.783,2.294h-8.151v0.675h8.341
		v1.674h-8.341v0.675h9.421v2.024H631.736z M621.344,429.925h-1.376v0.782h1.376V429.925z M621.344,431.922h-1.376v0.702h1.376
		V431.922z M621.344,436.376h-1.269v0.918h1.269V436.376z M627.066,429.925h-1.376v0.782h1.376V429.925z M627.066,431.922h-1.376
		v0.702h1.376V431.922z M626.959,436.376h-1.269v0.918h1.269V436.376z"/>
	<path d="M523.71,476.038v5.588h-5.237v-5.588h-8.8v-14.333h8.8v-3.968h5.237v3.968h8.854v14.333H523.71z M518.473,464.295h-3.778
		v9.151h3.778V464.295z M527.435,464.295h-3.725v9.151h3.725V464.295z"/>
	<path d="M559.186,465.565v6.693h-22.188v-6.774h-1.971l5.021-7.396h16.114l5.048,7.478H559.186z M537.618,481.598v-8.476h20.946
		v8.476H537.618z M554.191,463.459h-12.255l-0.675,0.944h13.604L554.191,463.459z M545.662,466.725h-3.914v3.239h3.914V466.725z
		 M542.882,469.397l-0.594-2.186h2.321l0.621,2.186H542.882z M553.571,475.335h-11.04v0.945h11.04V475.335z M553.571,478.386h-11.04
		v0.972h11.04V478.386z M552.194,460.517h-8.206l-0.675,0.917h9.556L552.194,460.517z M554.381,466.725h-3.888v3.239h3.888V466.725z
		 M553.354,469.397h-2.429l0.701-2.186h2.321L553.354,469.397z"/>
	<path d="M572.581,462.946l-2.916,5.804v12.876h-5.182V471.53h-1.701l4.319-8.584h-3.833v-2.699h5.183l1.295-2.483h5.453
		l-1.242,2.483h13.064v2.699H572.581z M570.179,481.625v-2.618h5.83v-7.424h-5.291v-2.672h5.291v-4.967h5.155v4.967h5.129v2.672
		h-5.129v7.424h6.101v2.618H570.179z"/>
	<path d="M606.814,460.679l-0.62,1.781h7.045v10.905h-5.642v8.26h-5.723l-0.999-2.295l-0.404,1.674h-4.535l1.512-6.532h4.562
		l-1.079,4.615h1.781v-5.722h-5.723V462.46h4.049l0.621-1.781h-5.776v17.113l-0.837,3.833h-5.074l0.81-3.779v-19.759h23.024v2.592
		H606.814z M608.488,464.97h-6.748v1.755h6.748V464.97z M608.488,469.074h-6.748v1.728h6.748V469.074z M609.892,481.004
		l-1.511-6.532h4.507l1.512,6.532H609.892z"/>
	<path d="M617.16,481.571v-2.591l1.512-0.405v-13.037h-1.403V463h1.403v-5.102h4.777V463h1.458v2.537h-1.458v11.742l1.539-0.378
		v2.591L617.16,481.571z M640.536,481.625h-15.008v-12.633l-1.323,0.404v-2.699l1.323-0.458v-6.344h4.346v4.939l1.053-0.297v-6.613
		h4.346v5.129l5.426-1.7v15.386h-4.481l-0.944-2.295v3.429h-4.346v-10.636l-1.053,0.271v11.579h11.525L640.536,481.625z
		 M636.217,465.484l-0.944,0.323v8.233h0.944V465.484z"/>
	<path d="M545.929,514.025h-7.234l-2.187-2.052l-0.647,2.052h-7.585L527.438,512l-0.594,2.024h-4.508l1.134-4.373v-14.198h-0.837
		v-2.564h2.402l-0.567-2.699h5.21l0.594,2.699h2.43v2.564h-4.805v3.266h4.615v14.873l0.864-2.807v-8.935h3.239v6.586l0.891,0.837
		v-9.718h-3.888v-1.322h-1.403l2.214-8.044h4.75l-0.566,2.214h7.99v2.618h-8.692l-0.513,2.051h8.935v5.804h-3.428v-3.32h-0.837
		v4.778h3.887v2.51h-3.887v4.643h5.048L545.929,514.025z M528.733,501.473h-0.836v8.826l-0.297,1.107h1.133V501.473z"/>
	<path d="M556.76,510.92v3.077h-4.104v-3.077h-3.077v-2.511h3.077v-1.188h-2.563V496.02h2.563v-1.134h-2.834v-2.51h2.834v-2.24
		h4.104v2.24h2.78v2.51h-2.78v1.134h2.51v11.202h-2.51v1.188h2.78v2.511H556.76z M552.656,498.558h-0.917v1.809h0.917V498.558z
		 M552.656,502.904h-0.917v1.781h0.917V502.904z M557.65,498.558h-0.891v1.809h0.891V498.558z M557.65,502.904h-0.891v1.781h0.891
		V502.904z M571.902,506.088v0.675h1.728v2.321h-1.728v4.913h-4.858l-0.999-2.537h1.484v-2.376h-7.504v-2.321h7.504v-0.81h3.32
		l-0.162-0.54l-10.688,0.405v-2.187l4.427-0.243v-1.106h-4.185v-7.477h4.185v-0.837h-4.427v-2.349h4.427v-1.431h4.48v1.431h4.615
		v2.349h-4.615v0.837h4.184v7.477h-0.432l1.215,3.806H571.902z M561.78,513.188l-1.512-3.401h4.4l1.538,3.401H561.78z
		 M564.426,496.803h-1.377v0.863h1.377V496.803z M564.426,499.475h-1.377v0.892h1.377V499.475z M570.31,496.803h-1.403v0.863h1.403
		V496.803z M570.31,499.475h-1.403v0.892h1.403V499.475z M569.662,502.283h-0.756v0.891l1.053-0.026L569.662,502.283z"/>
	<path d="M591.155,512.756v1.241h-5.048v-1.241h-9.123v-1.998h9.123v-0.782l-8.232-0.027v-6.316h8.232v-0.702h-6.721v-1.241h-2.457
		v-3.779h23.431v3.779h-2.295v1.241h-6.91v0.702h8.287v6.344h-8.287v0.782h9.231v1.998H591.155z M577.875,497.181v-6.694h21.513
		v6.694H577.875z M586.107,500.15h-4.156v0.811h4.156V500.15z M586.107,505.387h-3.428v0.701h3.428V505.387z M586.107,507.493
		h-3.428v0.756h3.428V507.493z M594.503,492.349h-11.77v0.783h11.77V492.349z M594.503,494.589h-11.77v0.756h11.77V494.589z
		 M591.155,500.15v0.811h4.157l0.026-0.811H591.155z M594.557,505.387h-3.401v0.701h3.401V505.387z M594.557,507.493h-3.401v0.756
		h3.401V507.493z"/>
	<path d="M603.957,513.376v-22.917h8.8v22.917H603.957z M609.086,493.024h-1.242v3.752h1.242V493.024z M609.086,499.394h-1.242
		v4.185h1.242V499.394z M609.086,506.143h-1.242v4.643h1.242V506.143z M623.122,513.944l-0.405-2.133l-1.188,2.133h-7.989v-2.511
		l4.291-6.505h-4.318v-2.673l3.833-6.613h-3.941v-2.537h4.346l-0.675-2.888h5.48l0.81,2.888h4.184v2.537h-5.102l-3.968,6.829h0.918
		l2.348-3.616h5.317l-8.151,12.524h3.725l-0.81-4.022h4.67l1.322,6.587H623.122z"/>
</g>
<g>
	<path d="M-44.351,448.693l-1.08-2.537h3.725v-5.696h-3.698v-8.719h3.671v-3.913h-4.076v-2.564h8.692v9.016h-3.563v3.616h3.644
		v10.798H-44.351z M-25.429,448.828l-0.108-0.81l-11.013,0.701v-2.618l5.047-0.323v-2.808h-4.75v-8.26h4.75v-1.377h4.481v1.377h4.67
		v8.26h-4.67v2.483l0.999-0.054l-0.297-1.782h3.833l0.891,5.21H-25.429z M-26.563,432.713l-0.567-1.539l-0.972,1.565h-8.206v-2.564
		l3.239-5.209h5.317l-3.158,5.209h3.374l-1.053-3.158h4.805l2.078,5.696H-26.563z M-31.502,437.356h-1.188v3.104h1.188V437.356z
		 M-25.834,437.356h-1.188v3.104h1.188V437.356z"/>
	<path d="M-7.552,448.855l-1.323-2.808h8.395v-15.305h-7.828v11.769l-4.697,6.344h-6.586l6.02-7.828v-10.284h-4.886v-2.754h4.886
		v-3.077h5.264v3.077h13.01v20.866H-7.552z"/>
	<path d="M14.319,428.448l-1.106,5.426h3.401v14.873H8.866v-10.015H7.868l2.159-10.284H8.408v-2.591h8.287v2.591H14.319z
		 M13.266,436.465h-0.945v9.69h0.945V436.465z M21.553,437.544h2.672v2.376l-1.295,3.158h1.269l0.027,5.668h-7.072v-2.996
		l2.294-5.614h-2.349l-0.027-2.861l2.564-6.128h4.643L21.553,437.544z M17.099,430.256v-2.537h1.998l-1.215-2.753h5.075l1.242,2.753
		h1.376l0.918-2.753h4.939l-0.972,2.753h1.755v2.537H17.099z M21.661,446.156h0.917v-2.187L21.661,446.156z M29.462,437.518h2.429
		v2.537l-1.214,3.023h1.242v5.668h-7.153v-2.996l2.348-5.614h-2.375v-2.699l2.618-6.29h4.778L29.462,437.518z M29.381,446.156h0.972
		v-2.322L29.381,446.156z"/>
	<path d="M57.353,439.165l0.621,7.233h1.592l-0.756,2.538h-4.48l-0.243-3.267l-0.837,1.565h-0.755v0.918l-8.611,0.621v-2.376
		l2.267-0.188v-1.106h-1.808v-2.105h1.808v-0.972h-2.132v-2.187h8.26v2.187h-2.024v0.972H51.9v2.105h-1.646v0.836l1.404-0.107
		l2.105-4.184l-0.81-9.097h-9.15v-0.702h-0.918v1.674h-1.511v2.187h2.105v2.456h-2.105v7.315l2.078-0.298v2.43L35.11,448.8v-2.483
		l2.457-0.297v-7.854h-2.159v-2.456h2.159v-2.187h-1.565v-1.674h-1.134l1.701-6.667h6.478l0.837,5.074h2.24v-1.322h-2.024v-2.349
		h2.024v-1.728h4.184v1.728h1.646v2.349h-1.646v1.322h2.429l-0.459-5.398h3.86l0.458,5.398h2.861v2.295H56.84l0.189,2.537
		l0.648-1.215h2.348L57.353,439.165z M35.677,445.292l-0.216-5.804h1.431l0.216,5.804H35.677z M40.05,427.747h-0.513l-0.783,3.4
		h1.836L40.05,427.747z M43.182,444.644h-1.431l0.351-5.156h1.404L43.182,444.644z M44.072,438.894v-5.587h8.098v5.587H44.072z
		 M48.661,435.466h-1.107v1.16h1.107V435.466z M57.271,429.474l-0.351-4.022h1.943l0.324,4.022H57.271z"/>
	<path d="M70.775,433.01l-0.324-1.485l-0.702,1.485h-7.234v-2.592l2.834-5.452h4.886l-2.78,5.425h2.727l-0.702-3.319h4.427
		l1.296,5.938H70.775z M69.075,448.719l-0.972-2.563h1.646v-1.755h-2.051v4.318h-4.805v-14.603h11.634v14.603H69.075z
		 M69.75,436.681h-2.051v1.295h2.051V436.681z M69.75,440.514h-2.051v1.35h2.051V440.514z M85.594,436.06h-9.987v-11.094h4.832
		v3.022h1.08l0.486-1.269h4.373l-1.053,3.86h-4.886v3.077h6.046L85.594,436.06z M85.541,448.719h-9.907v-11.796h4.832v3.132h1.106
		l0.351-1.296h4.481l-0.891,3.806h-5.047v3.645h6.073L85.541,448.719z"/>
	<path d="M-52.965,470.835v10.258h-5.021l-1.404-2.592h1.701v-4.534l-1.565,0.972v-3.186l1.565-0.999v-7.018h-1.646v-2.618h1.646
		v-3.671h4.724v3.671h1.404v2.618h-1.404v3.968l1.458-0.972v3.212L-52.965,470.835z M-35.987,481.093h-15.062v-23.457h15.089v13.955
		h-10.582v6.91h11.715L-35.987,481.093z M-45.299,460.282h-1.242v8.61h1.242V460.282z M-40.495,460.282h-1.295v8.61h1.295V460.282z"
		/>
	<path d="M-32.173,462.603v-2.537h3.995l-1.62-2.646h5.723l1.593,2.646h4.373l1.35-2.646h5.831l-1.35,2.646h3.86v2.537H-32.173z
		 M-25.263,481.228l-1.215-2.618h1.809v-2.78h-2.079v5.398h-4.939v-17.465h11.85v17.465H-25.263z M-24.669,466.328h-2.079v2.268
		h2.079V466.328z M-24.669,471.106h-2.079v2.294h2.079V471.106z M-18.866,476.936v-12.524h3.995v12.524H-18.866z M-17.166,481.228
		l-1.188-2.537h4.535v-15.306h4.832v17.843H-17.166z"/>
	<path d="M3.194,462.522v3.347h14.225v15.306h-9.69l-1.539-2.699h6.127v-9.88l-9.124,0.054v7.127l-2.888,5.398H-5.39l3.401-6.587
		v-12.065H-5.39v-2.78h9.637l-0.702-2.456h5.56l0.702,2.456h8.935v2.78H3.194z"/>
	<path d="M37.131,481.201l-1.106-2.726h4.588v-15.494H38.4l-0.836,2.808h-4.589v15.412H22.069v-20.893h2.213l0.864-2.996h5.021
		l-0.891,2.996h3.698v4.4l2.268-7.423h4.832l-0.891,3.05h6.262v20.865H37.131z M28.575,462.981h-2.213v6.263h2.213V462.981z
		 M28.575,471.862h-2.213v6.586h2.213V471.862z M35.512,475.992l-2.159-9.394h4.724l2.187,9.394H35.512z"/>
	<path d="M68.963,481.12l-1.188-2.456l-0.756,2.456h-4.049l2.294-7.639l-2.564-5.507v13.146h-4.508l-0.891-1.889h-3.509v-7.1h0.783
		v-1.512h-1.404v10.5h-3.806v-17.221h1.458l-0.621-2.295h-1.431v-2.51h4.67l-0.459-1.755h5.156l0.459,1.755h4.616v2.51h-1.242
		l-0.837,2.295h1.565v2.213l2.646-8.745h4.049l-0.918,3.131h4.292v2.646H72.31l-2.969,9.96l3.779,8.017H68.963z M54.576,466.463
		h-1.404v1.592h1.404V466.463z M54.657,461.604l0.648,2.295h1.377l0.702-2.295H54.657z M56.412,474.48h-0.756v2.402h0.756V474.48z
		 M58.895,466.463h-1.431v1.592h1.431V466.463z M58.895,470.62h-1.431v1.512h0.783v6.37h0.648V470.62z M67.694,463.143l-1.025,3.266
		h-3.968v0.648h3.752l0.513,0.863l1.376-4.777H67.694z"/>
	<path d="M94.344,481.201l-6.721-14.495l-6.56,14.495h-5.857l10.986-23.97h5.695l-3.752,8.396h4.724l7.261,15.574H94.344z"/>
	<path d="M-3.802,513.574l-0.917-1.512l-0.837,1.512h-4.859l3.158-5.696l-1.781-2.969v4.292l-1.998,4.373h-4.751l0.351-0.783h-7.936
		v-22.242h8.368v21.298l1.511-3.32v-15.953h-1.025v-2.537h13.928l0.054,2.97l-1.808,4.588h2.537v5.561l-2.672,4.805l3.428,5.615
		H-3.802z M-18.567,493.085h-0.944v17.222h0.944V493.085z M-4.422,500.077h-2.727v-2.807l1.863-4.697h-3.752v8.854h2.591l1.484,2.43
		l0.54-0.972V500.077z"/>
	<path d="M3.845,513.574v-23.592h23.187v23.592H3.845z M22.119,492.627H8.784v18.328h13.334V492.627z M9.972,508.795v-14.09h10.905
		v14.09H9.972z M16.585,497.324h-2.321v8.854h2.321V497.324z"/>
	<path d="M35.649,513.627h-5.507l3.86-8.206h5.506L35.649,513.627z M50.333,504.342l-0.783-2.43l-0.81,2.43h-3.833v9.285h-5.021
		v-9.285h-3.482l-0.81-2.402l-0.729,2.402h-4.562l2.672-8.746h4.562l-0.755,2.537h1.728l1.376,4.076v-7.585h-9.528v-2.672h9.528
		v-2.214h5.021v2.214h9.42v2.672h-9.42v7.882l2.16-6.91h4.48l-0.81,2.483h1.862l1.971,6.263H50.333z M49.416,513.627l-4.076-8.206
		h5.398l4.076,8.206H49.416z"/>
	<path d="M58.034,506.339v-14.414h5.183v14.414H58.034z M58.034,512.521v-5.075h5.183v5.075H58.034z"/>
</g>
</svg>
